<svg width="171.000000" height="95.000000" viewBox="0 0 171 95" fill="none" xmlns="http://www.w3.org/2000/svg" xmlns:xlink="http://www.w3.org/1999/xlink">
	<desc>
			Created with Pixso.
	</desc>
	<defs>
		<filter id="filter_10320_15850_dd" x="0.000000" y="0.000000" width="170.345703" height="94.145813" filterUnits="userSpaceOnUse" color-interpolation-filters="sRGB">
			<feFlood flood-opacity="0" result="BackgroundImageFix"/>
			<feColorMatrix in="SourceAlpha" type="matrix" values="0 0 0 0 0 0 0 0 0 0 0 0 0 0 0 0 0 0 127 0" result="hardAlpha"/>
			<feOffset dx="0" dy="4"/>
			<feGaussianBlur stdDeviation="1.33333"/>
			<feComposite in2="hardAlpha" operator="out" k2="-1" k3="1"/>
			<feColorMatrix type="matrix" values="0 0 0 0 0 0 0 0 0 0 0 0 0 0 0 0 0 0 0.25 0"/>
			<feBlend mode="normal" in2="BackgroundImageFix" result="effect_dropShadow_1"/>
			<feBlend mode="normal" in="SourceGraphic" in2="effect_dropShadow_1" result="shape"/>
		</filter>
	</defs>
	<g filter="url(#filter_10320_15850_dd)">
		<path id="FoodTrove" d="M111.44 50.43C111.73 50.74 112.05 50.9 112.4 50.9C112.72 50.9 113.01 50.78 113.26 50.55C113.52 50.32 113.65 49.99 113.65 49.55C113.65 49.45 113.64 49.33 113.62 49.22C113.47 48.23 113.37 47.16 113.33 46.02C113.3 44.88 113.28 43.73 113.28 42.59L113.28 41.73C113.28 40.46 113.24 39.32 113.17 38.32C113.07 37.09 112.81 36.3 112.38 35.94C112.13 35.76 111.86 35.67 111.58 35.67C111.27 35.67 110.99 35.79 110.74 36.03C110.49 36.27 110.33 36.64 110.24 37.14C110.1 38.04 110 38.76 109.94 39.3C109.87 39.83 109.81 40.23 109.76 40.48C109.72 40.73 109.66 40.89 109.58 40.96C109.51 41.03 109.4 41.06 109.26 41.06L109.12 41.06C109.07 41.05 109.01 41.04 108.94 41.04C108.45 41.04 107.85 41.18 107.14 41.46Q104.43 42.6 103.46 44.59Q103.4 44.72 103.34 44.85C103.07 45.51 102.93 46.16 102.93 46.8Q102.93 47.76 103.28 48.57Q103.48 49.04 103.81 49.46C104.39 50.2 105.13 50.58 106 50.58Q106.01 50.58 106.02 50.58Q107.53 50.56 109.02 48.87Q109.92 47.76 110.11 47.27C110.26 46.98 110.41 46.82 110.54 46.8C110.65 47.3 110.72 47.77 110.75 48.21C110.78 48.64 110.84 49.04 110.93 49.41C111.02 49.77 111.19 50.11 111.44 50.43ZM95.06 50.71C95.54 50.95 96.05 51.07 96.58 51.07Q96.7 51.07 96.82 51.07Q98.17 50.99 99.46 49.99Q99.81 49.72 100.11 49.42Q101.03 48.47 101.53 47.11C101.65 46.74 101.7 46.39 101.7 46.03C101.7 45.27 101.46 44.56 100.98 43.92C100.5 43.27 99.9 42.73 99.18 42.31Q98.22 41.74 97.19 41.51Q97.05 41.48 96.9 41.46C96.75 41.43 96.65 41.31 96.6 41.11C96.56 40.9 96.52 40.65 96.5 40.34C96.49 39.93 96.43 39.51 96.33 39.06C96.23 38.61 96.01 38.21 95.67 37.86C95.34 37.49 94.81 37.25 94.07 37.12C93.76 37.08 93.46 37.06 93.16 37.06C92.27 37.06 91.43 37.21 90.63 37.52C89.84 37.82 89.13 38.17 88.49 38.58C87.86 38.97 87.34 39.32 86.94 39.63C86.49 39.97 86.2 40.15 86.09 40.15L86.07 40.15C85.93 40.1 85.79 40.08 85.66 40.08Q85.55 40.08 85.45 40.1Q84.83 40.2 84.31 40.88C83.91 41.41 83.59 42.1 83.35 42.93Q83.34 42.98 83.32 43.03Q83 44.22 83 45.49Q83 46.64 83.32 47.69Q83.34 47.77 83.37 47.84Q83.66 48.74 84.25 49.38Q84.39 49.53 84.55 49.67Q84.6 49.7 84.65 49.74Q85.44 50.35 86.71 50.35Q87.67 50.35 88.49 50.03Q89.41 49.66 90.17 48.9Q90.85 48.21 91.11 47.39Q91.27 46.87 91.27 46.31Q91.27 46.08 91.24 45.86Q91.09 44.78 90.22 43.79C89.75 43.28 89.37 42.9 89.08 42.66C88.9 42.5 88.75 42.36 88.65 42.26C88.55 42.14 88.5 42.04 88.5 41.95Q88.5 41.7 89 41.33C89.53 40.91 90.23 40.51 91.1 40.11C91.97 39.72 92.67 39.52 93.21 39.52C93.62 39.52 93.84 39.67 93.85 39.97L93.85 40.08C93.85 40.5 93.81 40.95 93.74 41.44C93.66 41.92 93.58 42.42 93.48 42.95C93.37 43.53 93.28 44.13 93.19 44.74C93.11 45.33 93.06 45.92 93.06 46.5Q93.06 48.34 93.83 49.55C94.17 50.08 94.58 50.46 95.06 50.71ZM118.17 49.15C118.38 50.48 118.83 51.14 119.53 51.14C119.65 51.14 119.79 51.12 119.93 51.07C120.23 50.99 120.43 50.83 120.53 50.61C120.64 50.39 120.69 50.06 120.69 49.63C120.69 49.28 120.67 48.85 120.63 48.34C120.59 47.76 120.56 47.05 120.53 46.21C120.48 44.66 120.4 43.54 120.29 42.85C120.24 42.45 120.21 42.15 120.21 41.92C120.21 41.61 120.3 41.42 120.47 41.35Q120.73 41.23 121.4 41.19C121.86 41.15 122.48 41.07 123.27 40.93C123.93 40.8 124.4 40.61 124.68 40.35C124.97 40.09 125.11 39.81 125.11 39.54Q125.11 39.42 125.08 39.31Q125.01 39.05 124.76 38.83C124.53 38.62 124.24 38.51 123.88 38.51C123.76 38.51 123.64 38.52 123.53 38.55C122.27 38.78 120.9 38.94 119.41 39.03C118.44 39.09 117.54 39.17 116.71 39.28Q115.46 39.43 114.68 39.76C114.15 39.99 113.88 40.32 113.88 40.75C113.88 40.92 113.93 41.12 114.02 41.33C114.16 41.63 114.31 41.84 114.47 41.95C114.63 42.06 114.82 42.11 115.03 42.11C115.29 42.11 115.58 42.06 115.91 41.95C116.32 41.84 116.8 41.76 117.35 41.71Q117.4 41.71 117.44 41.73Q117.76 41.83 117.83 42.72C117.89 43.39 117.93 44.21 117.93 45.17C117.94 46.95 118.02 48.28 118.17 49.15ZM74.56 50.77Q74.92 51.06 75.27 51.06Q75.38 51.06 75.49 51.03Q75.79 50.96 76.04 50.67C76.26 50.42 76.37 50.1 76.37 49.71Q76.37 49.46 76.23 48.64Q76.13 48.16 76.13 47.89C76.13 47.59 76.27 47.4 76.55 47.31C76.83 47.23 77.36 47.15 78.15 47.09L79.41 46.95C79.86 46.88 80.2 46.74 80.44 46.51C80.68 46.29 80.8 46.04 80.8 45.78C80.8 45.47 80.62 45.19 80.26 44.93C80.04 44.79 79.74 44.72 79.38 44.72C79.08 44.72 78.66 44.75 78.1 44.8L77.35 44.87C77.17 44.88 77 44.89 76.85 44.91C76.71 44.93 76.59 44.95 76.48 44.95Q76.3 44.95 76.23 44.85Q76.22 44.84 76.21 44.83C76.17 44.75 76.15 44.58 76.15 44.32L76.15 43.95C76.16 43.75 76.16 43.51 76.16 43.23L76.1 43.23L76.08 42.11Q76.08 41.65 76.21 41.55C76.3 41.48 76.49 41.43 76.79 41.41L76.8 41.41C77.69 41.27 78.58 41.2 79.46 41.2C79.9 41.2 80.33 41.23 80.76 41.28L81.03 41.3Q81.54 41.3 81.82 41.04Q81.83 41.04 81.84 41.03C82.04 40.83 82.13 40.61 82.13 40.37C82.13 40.19 82.07 40.01 81.94 39.83C81.81 39.63 81.62 39.48 81.35 39.38C81.09 39.26 80.78 39.18 80.42 39.14C80.06 39.09 79.67 39.07 79.25 39.07C78.6 39.07 77.95 39.1 77.28 39.15C76.73 39.2 76.26 39.22 75.86 39.22Q75.28 39.22 75.06 39.11C74.91 39.02 74.75 38.98 74.58 38.98Q74.53 38.98 74.48 38.98Q74.2 39 73.92 39.17C73.71 39.3 73.56 39.46 73.48 39.67C73.41 39.8 73.33 39.95 73.22 40.1Q73.06 40.32 72.93 40.56C72.85 40.72 72.8 40.9 72.8 41.09C72.8 41.33 72.91 41.61 73.12 41.91C73.32 42.16 73.41 42.44 73.41 42.75L73.46 45.12Q73.46 45.52 73.41 45.68C73.39 45.79 73.35 45.89 73.28 45.99C73.16 46.2 73.09 46.39 73.09 46.55C73.09 46.76 73.16 46.96 73.3 47.15C73.46 47.4 73.57 47.73 73.62 48.16Q73.72 49.22 73.97 49.86Q74.23 50.5 74.56 50.77ZM159.97 50.91L160.42 50.91Q161.86 50.91 162.93 50.43C163.64 50.11 164.19 49.72 164.58 49.27Q165.17 48.58 165.17 48C165.17 47.75 165.07 47.53 164.88 47.35C164.69 47.15 164.4 47.04 164 46.99L163.79 46.98Q163.44 46.98 163.17 47.09C163 47.16 162.82 47.25 162.64 47.35Q161.52 47.99 160.42 47.99Q159.57 47.99 158.93 47.62Q158.73 47.5 158.54 47.35C158.05 46.92 157.81 46.38 157.81 45.73C157.81 45.4 157.85 45.23 157.94 45.23C157.98 45.23 158.02 45.25 158.06 45.28C158.12 45.3 158.17 45.33 158.21 45.36C158.26 45.39 158.31 45.42 158.35 45.44C158.95 45.77 159.52 45.94 160.06 45.94Q160.57 45.94 161.02 45.79Q161.48 45.64 161.89 45.35Q162.26 45.07 162.57 44.74Q162.92 44.34 163.18 43.86C163.5 43.26 163.66 42.65 163.66 42.03C163.66 41.39 163.45 40.81 163.02 40.29C162.61 39.76 161.92 39.4 160.96 39.23C160.69 39.19 160.44 39.17 160.19 39.17Q159.41 39.17 158.72 39.41Q158.33 39.55 157.97 39.76C157.31 40.15 156.74 40.66 156.26 41.31C155.79 41.95 155.42 42.67 155.15 43.46C154.9 44.25 154.77 45.04 154.77 45.83C154.77 46.71 154.94 47.54 155.3 48.32C155.66 49.09 156.22 49.71 156.98 50.19C157.74 50.67 158.74 50.91 159.97 50.91ZM136.39 50.13C136.9 50.57 137.55 50.79 138.34 50.79C139.41 50.79 140.44 50.31 141.45 49.35C142.37 48.47 142.94 47.22 143.16 45.59Q143.14 45.16 143.08 44.75Q142.92 43.7 142.44 42.71C141.99 41.78 141.33 41.2 140.45 40.98C140.26 40.92 140.08 40.81 139.89 40.64C139.75 40.52 139.6 40.42 139.43 40.32C139.27 40.21 139.06 40.16 138.81 40.16C138.58 40.16 138.31 40.23 137.99 40.35C136.97 40.82 136.19 41.61 135.65 42.72Q135.16 43.78 134.97 44.89Q134.87 45.53 134.87 46.18C134.87 46.98 134.99 47.73 135.24 48.43C135.49 49.14 135.88 49.7 136.39 50.13ZM125.29 49.78C125.5 50.49 126.03 50.85 126.89 50.85C127.21 50.85 127.44 50.75 127.58 50.56C127.73 50.38 127.83 50.12 127.87 49.79C127.92 49.46 127.96 49.09 127.98 48.67C127.99 48.04 128.06 47.38 128.19 46.67C128.33 45.96 128.63 45.28 129.1 44.64C129.58 44 130.35 43.47 131.39 43.06C131.58 42.99 131.77 42.96 131.95 42.96C132.15 42.96 132.35 42.98 132.54 43.03C132.73 43.06 132.91 43.07 133.07 43.07C133.26 43.07 133.44 43.03 133.6 42.93C133.76 42.83 133.9 42.65 134.01 42.39C134.08 42.23 134.11 42.07 134.11 41.92Q134.11 41.76 134.07 41.62Q133.94 41.2 133.47 40.9C133.05 40.61 132.5 40.47 131.82 40.47C131.27 40.47 130.65 40.58 129.98 40.82C129.31 41.05 128.62 41.44 127.9 41.99C127.61 42.21 127.43 42.32 127.34 42.32C127.29 42.32 127.24 42.26 127.2 42.13C127.09 41.82 126.91 41.57 126.64 41.39C126.37 41.2 126.12 41.11 125.89 41.11C125.6 41.11 125.35 41.21 125.15 41.43Q125.01 41.58 124.94 41.77Q124.86 41.96 124.86 42.18L124.86 42.91C124.86 43.48 124.94 44.03 125.09 44.58C125.15 44.83 125.18 45.15 125.18 45.54C125.18 45.9 125.17 46.31 125.13 46.75C125.1 47.24 125.09 47.72 125.09 48.19C125.09 48.78 125.16 49.31 125.29 49.78ZM146.64 50.42C147.2 51.58 147.86 52.16 148.64 52.16Q149.04 52.16 149.52 51.94C150.05 51.65 150.57 51.03 151.06 50.07C151.56 49.12 152.03 47.99 152.46 46.69C152.91 45.38 153.33 44.04 153.71 42.69C153.78 42.48 153.81 42.28 153.81 42.1Q153.81 41.57 153.55 41.24Q153.53 41.21 153.5 41.19C153.3 40.95 153.06 40.83 152.77 40.83C152.48 40.83 152.19 40.97 151.89 41.25C151.59 41.52 151.33 41.95 151.1 42.56Q149.9 46.07 149.54 46.98C149.23 47.78 148.98 48.18 148.8 48.18C148.67 48.18 148.55 48.03 148.43 47.73C148.33 47.42 148.19 46.99 148.03 46.45Q147.63 45.01 146.77 42.79Q146.67 42.55 146.51 42.36Q146.37 42.19 146.18 42.07C145.91 41.88 145.64 41.79 145.38 41.79Q145.22 41.79 145.08 41.84Q144.88 41.91 144.7 42.08C144.51 42.27 144.42 42.58 144.42 43.01C144.42 43.44 144.54 44 144.8 44.71Q145.14 45.6 145.46 46.88C145.88 48.46 146.28 49.64 146.64 50.42ZM160.29 43.6C160.18 43.65 160.1 43.68 160.03 43.68Q159.87 43.68 159.7 43.49C159.48 43.28 159.2 43.15 158.83 43.12C158.72 43.11 158.66 43.06 158.66 42.98C158.66 42.8 158.86 42.53 159.28 42.19C159.71 41.85 160.1 41.68 160.46 41.68C160.71 41.68 160.9 41.76 161.02 41.91C161.15 42.04 161.22 42.21 161.22 42.42C161.22 42.62 161.14 42.83 160.99 43.04C160.84 43.25 160.61 43.44 160.29 43.6ZM138.73 47.75C138.6 47.81 138.48 47.84 138.37 47.84Q138.27 47.84 138.17 47.8Q137.91 47.7 137.77 47.28C137.65 46.9 137.59 46.44 137.59 45.92C137.59 45.24 137.68 44.56 137.86 43.89C138.05 43.22 138.32 42.76 138.66 42.53Q139.35 43.27 139.64 43.81C139.84 44.17 139.97 44.58 140.02 45.04L140.04 45.36C140.04 45.84 139.92 46.31 139.67 46.75Q139.39 47.27 138.97 47.59Q138.85 47.67 138.73 47.75ZM108.03 45.95Q106.93 47.97 106.1 47.97Q105.97 47.97 105.86 47.92Q105.74 47.85 105.65 47.71C105.54 47.54 105.49 47.32 105.49 47.04Q105.49 46.48 105.81 45.75C106.03 45.25 106.38 44.78 106.86 44.32C107.35 43.86 108 43.47 108.8 43.15L108.91 43.14Q108.97 43.14 109 43.16Q109.07 43.21 109.07 43.36C109.07 43.61 108.97 43.98 108.75 44.48C108.54 44.97 108.3 45.46 108.03 45.95ZM87.93 47.01C87.67 47.25 87.39 47.38 87.08 47.38C86.77 47.38 86.49 47.21 86.23 46.88C85.99 46.54 85.86 45.94 85.86 45.07Q85.86 43.8 86.07 43.76Q86.08 43.76 86.09 43.76Q86.39 43.76 87.3 44.72C87.8 45.25 88.11 45.61 88.23 45.79C88.3 45.92 88.33 46.05 88.33 46.18C88.33 46.48 88.19 46.75 87.93 47.01ZM98.09 47.43C97.67 47.89 97.26 48.13 96.86 48.13C96.61 48.13 96.4 48 96.22 47.73C96.03 47.46 95.94 47 95.94 46.34Q95.94 45.43 96.23 43.95C97.13 44.25 97.87 44.72 98.46 45.35C98.63 45.54 98.71 45.76 98.71 46.02C98.71 46.48 98.5 46.95 98.09 47.43Z" fill="#000000" fill-opacity="1.000000" fill-rule="evenodd"/>
		<path id="Vector" d="M57.44 57.62C49.49 63.03 38.62 60.97 33.21 53.02C27.8 45.08 29.86 34.21 37.81 28.8C45.75 23.39 56.62 25.45 62.03 33.39C67.44 41.34 65.38 52.21 57.44 57.62ZM38.51 29.84C31.14 34.86 29.23 44.94 34.25 52.31C39.27 59.69 49.36 61.6 56.73 56.58C64.1 51.56 66.01 41.47 60.99 34.1C55.97 26.73 45.89 24.82 38.51 29.84Z" fill="#CDCDCD" fill-opacity="1.000000" fill-rule="nonzero"/>
		<path id="Vector" d="M59.89 31.57L59.37 31.57C58.88 31.57 58.44 31.51 58.11 31.45C58.15 31.11 58.29 30.53 58.39 30.13L58.53 29.62L58.02 29.74C57.43 29.88 56.9 29.92 56.58 29.92L56.57 29.9C56.5 29.69 56.47 28.86 56.47 28.33L56.47 27.81L56.01 28.05C55.62 28.26 55.25 28.4 54.95 28.5C55 28.07 55.06 27.64 55.06 27.63L55.14 27.11L54.65 27.29C54.04 27.5 53.48 27.6 53.16 27.64C53.08 27.16 53.03 26.52 53.03 26.51L52.98 25.99L52.54 26.28C52.26 26.46 51.98 26.61 51.74 26.73C51.92 25.78 52 25.06 51.95 24.59C51.82 23.31 51.71 20.35 51.69 19.87C51.71 19.69 51.66 19.34 51.15 19.05C50.84 18.87 50.42 18.75 49.98 18.71C49.36 18.65 48.78 18.75 48.43 18.99C48.28 19.09 48.18 19.22 48.12 19.36C47.93 19.64 47.58 20.29 47.71 21.29C47.77 21.75 47.9 22.27 48.04 22.81C48.25 23.65 48.48 24.52 48.42 25.17C48.39 25.56 48.23 26.24 47.95 27.15C47.7 26.94 47.26 26.45 46.97 26.12L46.63 25.72L46.44 26.21C46.25 26.69 46.02 27.1 45.84 27.39C45.49 27.08 45.09 26.7 45.09 26.7L44.72 26.33L44.57 26.84C44.44 27.28 44.28 27.67 44.13 27.96C43.77 27.79 43.23 27.49 43.01 27.36L42.56 27.09L42.53 27.61C42.51 28.06 42.45 28.46 42.38 28.78C41.93 28.63 41.41 28.42 41.4 28.42L40.91 28.23L40.97 28.75C41.03 29.28 41.01 29.77 40.99 30.1C40.66 30.08 40.03 29.97 39.61 29.89L39.1 29.78L39.25 30.28C39.4 30.79 39.47 31.26 39.5 31.59C39.18 31.63 38.52 31.62 38.08 31.6L37.56 31.58L37.78 32.05C38.03 32.57 38.18 33.07 38.26 33.39C37.92 33.42 37.35 33.41 36.95 33.39L36.43 33.37L36.66 33.84C36.94 34.43 37.09 34.99 37.17 35.3C36.84 35.37 36.21 35.45 35.78 35.49L35.26 35.54L35.55 35.98C35.87 36.46 36.08 36.93 36.21 37.24C35.92 37.34 35.23 37.5 34.78 37.58L34.26 37.68L34.59 38.09C34.96 38.55 35.22 39 35.37 39.3C35.05 39.45 34.47 39.67 34.12 39.79L33.62 39.96L34.01 40.32C34.36 40.64 34.64 40.98 34.83 41.24C34.47 41.4 33.96 41.58 33.74 41.66L33.25 41.83L33.63 42.18C34.07 42.59 34.4 43 34.58 43.27C34.14 43.47 33.52 43.68 33.51 43.68L33.02 43.85L33.4 44.21C33.76 44.54 34.05 44.88 34.25 45.15C34.13 45.25 33.94 45.39 33.62 45.61C33.36 45.79 33.14 45.93 33.14 45.93L32.69 46.21L33.15 46.47C33.67 46.76 34.09 47.1 34.34 47.32L34.33 47.34C34.23 47.54 33.69 48.17 33.33 48.56L32.97 48.94L33.48 49.07C33.9 49.18 34.27 49.33 34.56 49.46C34.24 49.74 33.89 50.02 33.89 50.03L33.48 50.36L33.96 50.56C34.47 50.78 34.9 51.04 35.17 51.23C35 51.52 34.64 52.01 34.39 52.34L34.07 52.75L34.58 52.84C35.03 52.92 35.42 53.04 35.72 53.14C35.67 53.41 35.4 54.11 35.2 54.56L35 55.04L35.52 55C35.99 54.96 36.41 54.97 36.74 55C36.58 55.31 36.25 55.81 36.02 56.15L35.72 56.59L36.24 56.64C36.73 56.7 37.16 56.8 37.48 56.9C37.4 57.23 37.19 57.8 37.05 58.19L36.85 58.68L37.38 58.61C37.97 58.54 38.51 58.56 38.83 58.59L38.84 58.62C38.88 58.83 38.82 59.66 38.76 60.19L38.7 60.71L39.18 60.52C39.59 60.35 39.98 60.25 40.28 60.19C40.19 60.61 40.08 61.03 40.08 61.04L39.94 61.55L40.45 61.43C41 61.3 41.49 61.26 41.83 61.25C41.86 61.59 41.86 62.19 41.85 62.61L41.84 63.13L42.31 62.9C42.81 62.64 43.3 62.49 43.62 62.4C43.74 62.68 43.92 63.36 44.03 63.8L44.15 64.32L44.54 63.97C44.85 63.7 45.21 63.44 45.58 63.22L45.59 63.22C45.76 63.36 46.23 64.05 46.51 64.5L46.78 64.95L47.05 64.49C47.25 64.13 47.48 63.82 47.67 63.58L47.67 63.59C47.87 63.68 48.48 64.25 48.86 64.62L49.23 64.99L49.38 64.48C49.46 64.22 49.55 63.96 49.67 63.69C49.94 63.79 50.59 64.13 51 64.37L51.46 64.63L51.48 64.11C51.48 63.96 51.49 63.81 51.5 63.66C51.83 63.8 52.31 64.05 52.64 64.24L53.1 64.49L53.11 63.97C53.12 63.56 53.16 63.19 53.22 62.89C53.46 62.95 54.17 63.3 54.62 63.54L55.08 63.78L55.08 63.26C55.08 62.81 55.13 62.4 55.17 62.1C55.56 62.28 55.94 62.48 55.95 62.48L56.41 62.73L56.41 62.2C56.41 61.65 56.48 61.16 56.55 60.82C56.94 60.87 57.56 61.01 57.81 61.07L58.32 61.19L58.18 60.68C58.06 60.21 58 59.77 57.98 59.45C58.38 59.48 58.92 59.55 59.14 59.58L59.66 59.66L59.49 59.17C59.42 58.98 59.36 58.79 59.31 58.59L59.43 58.62L59.32 58.11C59.31 58.1 59.31 58.09 59.31 58.07C59.79 58.11 60.38 58.19 60.39 58.19L60.91 58.27L60.73 57.77C60.55 57.29 60.46 56.83 60.4 56.5C60.57 56.5 60.68 56.5 60.69 56.5L61.21 56.49L61.2 56.47C61.41 56.5 61.57 56.53 61.57 56.53L62.09 56.61L61.92 56.11C61.71 55.51 61.62 54.96 61.58 54.63C61.81 54.54 62.6 54.42 63.11 54.36L63.63 54.3L63.33 53.87C62.94 53.31 62.7 52.77 62.58 52.48C62.94 52.3 63.53 52.07 63.78 51.98L64.27 51.8L63.88 51.45C63.49 51.1 63.18 50.74 62.98 50.48L62.99 50.48C63.12 50.31 63.78 49.81 64.22 49.51L64.65 49.21L64.18 48.97C63.88 48.81 63.58 48.63 63.29 48.42L63.21 48.36C63.15 48.31 63.09 48.26 63.03 48.21C63.38 48.01 64.01 47.72 64.25 47.62L64.74 47.41L64.33 47.08C63.87 46.72 63.53 46.35 63.31 46.09C63.67 45.78 64.14 45.44 64.14 45.43L64.56 45.12L64.09 44.9C63.82 44.77 63.55 44.62 63.29 44.45C63.47 44.16 63.83 43.69 64.08 43.37L64.41 42.96L63.89 42.86C63.47 42.79 63.1 42.67 62.81 42.57C63.13 42.24 63.5 41.89 63.5 41.88L63.89 41.52L63.39 41.36C62.87 41.18 62.43 40.95 62.13 40.78C62.29 40.47 62.61 39.96 62.83 39.61L63.13 39.18L62.6 39.13C62.18 39.09 61.8 39.01 61.5 38.93C61.69 38.66 62.14 38.19 62.45 37.87L62.82 37.5L62.32 37.35C61.79 37.2 61.35 36.99 61.05 36.83C61.16 36.53 61.45 35.93 61.66 35.54L61.91 35.08L61.38 35.08C60.96 35.08 60.58 35.04 60.28 35C60.3 34.73 60.5 33.99 60.64 33.52L60.79 33.01L60.27 33.12C59.84 33.2 59.43 33.24 59.11 33.25L59.19 32.98L59.18 32.98C59.32 32.67 59.5 32.3 59.65 32.02L59.9 31.56L59.89 31.57Z" fill="#CBCBCB" fill-opacity="1.000000" fill-rule="nonzero"/>
		<path id="Vector" d="M46.72 17.15C46.72 17.15 46.1 17.79 46.26 19.01C46.43 20.22 47.09 21.9 47 23.07C46.91 24.23 45.84 27.1 45.84 27.1L47.17 29.06L48.99 27.65C48.99 27.65 50.13 23.96 49.98 22.49C49.84 21.01 49.72 17.49 49.72 17.49L46.72 17.15Z" fill="#433709" fill-opacity="1.000000" fill-rule="nonzero"/>
		<path id="Vector" d="M47.9 17.29C47.93 17.99 48.26 20.91 48.39 22.19C48.53 23.66 47.39 27.36 47.39 27.36L46.19 28.05L46.86 29.03L48.68 27.62C48.68 27.62 49.82 23.93 49.67 22.46C49.53 20.98 49.41 17.46 49.41 17.46L47.9 17.29L47.9 17.29Z" fill="#261C02" fill-opacity="1.000000" fill-rule="nonzero"/>
		<path id="Vector" d="M49.72 17.56C49.68 17.95 48.97 18.19 48.12 18.11C47.27 18.03 46.61 17.65 46.65 17.27C46.68 16.88 47.4 16.64 48.25 16.72C49.1 16.8 49.76 17.18 49.72 17.56Z" fill="#FCD3B3" fill-opacity="1.000000" fill-rule="nonzero"/>
		<path id="Vector" d="M46.14 25.58C46.14 25.58 40.27 25.61 35.82 33.44C31.36 41.28 32.08 47.85 35.13 53.51C38.17 59.16 41.66 61.92 47.05 62.32C52.44 62.72 61.18 54.36 61.17 48.59C61.16 41.16 59.15 34.42 57.05 31.29C54.96 28.15 52.04 26.67 50.53 26.08C49.02 25.49 47.41 25.39 47.41 25.39L46.14 25.58L46.14 25.58Z" fill="#4B5B19" fill-opacity="1.000000" fill-rule="nonzero"/>
		<path id="Vector" d="M43.03 24.85C43.03 24.85 44 25.8 44.33 25.96L44.67 26.13L44.01 27.42C44.01 27.42 43.1 26.6 43.11 26.57C43.13 26.54 43.03 24.85 43.03 24.85L43.03 24.85Z" fill="#6B7B3E" fill-opacity="1.000000" fill-rule="nonzero"/>
		<path id="Vector" d="M43.03 24.85C42.73 25.89 42.24 26.64 42.24 26.64L44.01 27.42L43.03 24.85L43.03 24.85Z" fill="#4B5B19" fill-opacity="1.000000" fill-rule="nonzero"/>
		<path id="Vector" d="M40.94 25.57C40.94 25.57 42.11 26.27 42.48 26.35L42.84 26.43L42.5 27.84C42.5 27.84 41.42 27.25 41.43 27.22C41.44 27.19 40.95 25.57 40.95 25.57L40.94 25.57Z" fill="#6B7B3E" fill-opacity="1.000000" fill-rule="nonzero"/>
		<path id="Vector" d="M40.94 25.57C40.89 26.65 40.6 27.5 40.6 27.5L42.5 27.84L40.94 25.57Z" fill="#4B5B19" fill-opacity="1.000000" fill-rule="nonzero"/>
		<path id="Vector" d="M39.33 26.69C39.33 26.69 40.59 27.19 40.97 27.21L41.34 27.24L41.23 28.68C41.23 28.68 40.07 28.27 40.08 28.24C40.08 28.21 39.33 26.69 39.33 26.69L39.33 26.69Z" fill="#6B7B3E" fill-opacity="1.000000" fill-rule="nonzero"/>
		<path id="Vector" d="M39.34 26.69C39.46 27.76 39.29 28.64 39.29 28.64L41.23 28.68L39.33 26.69L39.34 26.69Z" fill="#4B5B19" fill-opacity="1.000000" fill-rule="nonzero"/>
		<path id="Vector" d="M34.87 31.82C34.87 31.82 36.22 31.88 36.58 31.78L36.94 31.68L37.32 33.08C37.32 33.08 36.09 33.08 36.08 33.05C36.07 33.02 34.87 31.82 34.87 31.82L34.87 31.82Z" fill="#6B7B3E" fill-opacity="1.000000" fill-rule="nonzero"/>
		<path id="Vector" d="M34.87 31.82C35.34 32.8 35.47 33.68 35.47 33.68L37.31 33.08L34.87 31.82L34.87 31.82Z" fill="#4B5B19" fill-opacity="1.000000" fill-rule="nonzero"/>
		<path id="Vector" d="M36.03 29.98C36.03 29.98 37.38 30.04 37.74 29.94L38.1 29.84L38.47 31.24C38.47 31.24 37.25 31.24 37.24 31.21C37.23 31.18 36.03 29.98 36.03 29.98L36.03 29.98Z" fill="#6B7B3E" fill-opacity="1.000000" fill-rule="nonzero"/>
		<path id="Vector" d="M36.03 29.98C36.5 30.96 36.63 31.84 36.63 31.84L38.47 31.24L36.03 29.98L36.03 29.98Z" fill="#4B5B19" fill-opacity="1.000000" fill-rule="nonzero"/>
		<path id="Vector" d="M37.55 28.21C37.55 28.21 38.88 28.48 39.25 28.44L39.63 28.39L39.77 29.84C39.77 29.84 38.56 29.64 38.56 29.61C38.56 29.58 37.55 28.21 37.55 28.21L37.55 28.21Z" fill="#6B7B3E" fill-opacity="1.000000" fill-rule="nonzero"/>
		<path id="Vector" d="M37.55 28.21C37.86 29.25 37.86 30.14 37.86 30.14L39.77 29.84L37.55 28.21Z" fill="#4B5B19" fill-opacity="1.000000" fill-rule="nonzero"/>
		<path id="Vector" d="M44.94 24.23C44.94 24.23 45.82 25.26 46.14 25.46L46.46 25.65L45.69 26.88C45.69 26.88 44.85 25.97 44.87 25.95C44.89 25.92 44.94 24.23 44.94 24.23L44.94 24.23Z" fill="#6B7B3E" fill-opacity="1.000000" fill-rule="nonzero"/>
		<path id="Vector" d="M44.94 24.23C44.55 25.24 44 25.94 44 25.94L45.69 26.88L44.94 24.23L44.94 24.23Z" fill="#4B5B19" fill-opacity="1.000000" fill-rule="nonzero"/>
		<path id="Vector" d="M31.68 40.31C31.68 40.31 32.97 39.87 33.26 39.64L33.56 39.41L34.42 40.58C34.42 40.58 33.28 41.03 33.26 41.01C33.25 40.98 31.68 40.31 31.68 40.31Z" fill="#6B7B3E" fill-opacity="1.000000" fill-rule="nonzero"/>
		<path id="Vector" d="M31.68 40.31C32.48 41.05 32.93 41.82 32.93 41.82L34.42 40.58L31.68 40.31Z" fill="#4B5B19" fill-opacity="1.000000" fill-rule="nonzero"/>
		<path id="Vector" d="M32.07 38.39C32.07 38.39 33.35 37.95 33.65 37.72L33.95 37.5L34.81 38.67C34.81 38.67 33.66 39.11 33.65 39.09C33.63 39.06 32.07 38.39 32.07 38.39Z" fill="#6B7B3E" fill-opacity="1.000000" fill-rule="nonzero"/>
		<path id="Vector" d="M32.07 38.39C32.86 39.13 33.32 39.9 33.32 39.9L34.81 38.67L32.07 38.39Z" fill="#4B5B19" fill-opacity="1.000000" fill-rule="nonzero"/>
		<path id="Vector" d="M32.7 36.13C32.7 36.13 34.04 35.88 34.36 35.7L34.69 35.52L35.37 36.8C35.37 36.8 34.17 37.08 34.16 37.05C34.15 37.02 32.7 36.13 32.7 36.13L32.7 36.13Z" fill="#6B7B3E" fill-opacity="1.000000" fill-rule="nonzero"/>
		<path id="Vector" d="M32.7 36.13C33.38 36.98 33.72 37.81 33.72 37.81L35.37 36.8L32.7 36.13Z" fill="#4B5B19" fill-opacity="1.000000" fill-rule="nonzero"/>
		<path id="Vector" d="M33.71 33.99C33.71 33.99 35.06 33.86 35.4 33.71L35.75 33.56L36.3 34.9C36.3 34.9 35.08 35.06 35.08 35.04C35.06 35.01 33.71 33.99 33.71 33.99Z" fill="#6B7B3E" fill-opacity="1.000000" fill-rule="nonzero"/>
		<path id="Vector" d="M33.71 33.99C34.31 34.89 34.56 35.75 34.56 35.75L36.3 34.9L33.71 33.99Z" fill="#4B5B19" fill-opacity="1.000000" fill-rule="nonzero"/>
		<path id="Vector" d="M31.45 42.4C31.45 42.4 32.73 41.96 33.03 41.73L33.33 41.5L34.18 42.67C34.18 42.67 33.04 43.12 33.02 43.09C33.01 43.07 31.45 42.4 31.45 42.4Z" fill="#6B7B3E" fill-opacity="1.000000" fill-rule="nonzero"/>
		<path id="Vector" d="M31.45 42.4C32.24 43.13 32.69 43.9 32.69 43.9L34.18 42.67L31.45 42.4Z" fill="#4B5B19" fill-opacity="1.000000" fill-rule="nonzero"/>
		<path id="Vector" d="M31.13 44.68C31.13 44.68 32.27 43.95 32.51 43.66L32.75 43.37L33.85 44.31C33.85 44.31 32.84 45.01 32.82 44.99C32.8 44.97 31.13 44.68 31.13 44.68L31.13 44.68Z" fill="#6B7B3E" fill-opacity="1.000000" fill-rule="nonzero"/>
		<path id="Vector" d="M31.13 44.68C32.07 45.21 32.69 45.86 32.69 45.86L33.85 44.31L31.13 44.68L31.13 44.68Z" fill="#4B5B19" fill-opacity="1.000000" fill-rule="nonzero"/>
		<path id="Vector" d="M31.39 47.33C31.39 47.33 32.31 46.33 32.47 45.99L32.63 45.65L33.93 46.28C33.93 46.28 33.13 47.21 33.11 47.2C33.08 47.18 31.39 47.33 31.39 47.33Z" fill="#6B7B3E" fill-opacity="1.000000" fill-rule="nonzero"/>
		<path id="Vector" d="M31.39 47.33C32.43 47.6 33.2 48.07 33.2 48.07L33.93 46.28L31.39 47.33Z" fill="#4B5B19" fill-opacity="1.000000" fill-rule="nonzero"/>
		<path id="Vector" d="M31.93 48.87C31.93 48.87 32.99 48.02 33.19 47.71L33.39 47.39L34.59 48.21C34.59 48.21 33.67 49.01 33.65 48.99C33.62 48.98 31.93 48.87 31.93 48.87L31.93 48.87Z" fill="#6B7B3E" fill-opacity="1.000000" fill-rule="nonzero"/>
		<path id="Vector" d="M31.93 48.87C32.92 49.3 33.61 49.87 33.61 49.87L34.6 48.21L31.93 48.87L31.93 48.87Z" fill="#4B5B19" fill-opacity="1.000000" fill-rule="nonzero"/>
		<path id="Vector" d="M32.5 51.2C32.5 51.2 33.33 50.13 33.45 49.77L33.58 49.42L34.94 49.93C34.94 49.93 34.22 50.93 34.19 50.92C34.16 50.91 32.49 51.2 32.49 51.2L32.5 51.2Z" fill="#6B7B3E" fill-opacity="1.000000" fill-rule="nonzero"/>
		<path id="Vector" d="M32.5 51.2C33.56 51.38 34.36 51.78 34.36 51.78L34.93 49.93L32.49 51.2L32.5 51.2Z" fill="#4B5B19" fill-opacity="1.000000" fill-rule="nonzero"/>
		<path id="Vector" d="M33.38 53.41C33.38 53.41 33.91 52.17 33.94 51.79L33.98 51.42L35.42 51.57C35.42 51.57 34.98 52.72 34.95 52.71C34.92 52.71 33.38 53.41 33.38 53.41L33.38 53.41Z" fill="#6B7B3E" fill-opacity="1.000000" fill-rule="nonzero"/>
		<path id="Vector" d="M33.37 53.41C34.45 53.32 35.33 53.5 35.33 53.5L35.42 51.57L33.37 53.41L33.37 53.41Z" fill="#4B5B19" fill-opacity="1.000000" fill-rule="nonzero"/>
		<path id="Vector" d="M34.18 55.11C34.18 55.11 34.95 53.99 35.06 53.63L35.16 53.27L36.55 53.7C36.55 53.7 35.89 54.74 35.86 54.73C35.83 54.72 34.18 55.11 34.18 55.11L34.18 55.11Z" fill="#6B7B3E" fill-opacity="1.000000" fill-rule="nonzero"/>
		<path id="Vector" d="M34.18 55.11C35.26 55.23 36.08 55.58 36.08 55.58L36.55 53.7L34.18 55.11Z" fill="#4B5B19" fill-opacity="1.000000" fill-rule="nonzero"/>
		<path id="Vector" d="M35.28 57.13C35.28 57.13 35.77 55.87 35.79 55.5L35.81 55.12L37.25 55.22C37.25 55.22 36.85 56.38 36.82 56.38C36.79 56.38 35.28 57.13 35.28 57.13Z" fill="#6B7B3E" fill-opacity="1.000000" fill-rule="nonzero"/>
		<path id="Vector" d="M35.27 57.13C36.35 57 37.23 57.16 37.23 57.16L37.25 55.22L35.27 57.13Z" fill="#4B5B19" fill-opacity="1.000000" fill-rule="nonzero"/>
		<path id="Vector" d="M37.06 59.11C37.06 59.11 37.21 57.76 37.13 57.4L37.06 57.03L38.48 56.76C38.48 56.76 38.39 57.98 38.36 57.99C38.33 57.99 37.05 59.11 37.05 59.11L37.06 59.11Z" fill="#6B7B3E" fill-opacity="1.000000" fill-rule="nonzero"/>
		<path id="Vector" d="M37.06 59.11C38.06 58.71 38.95 58.64 38.95 58.64L38.48 56.76L37.06 59.11Z" fill="#4B5B19" fill-opacity="1.000000" fill-rule="nonzero"/>
		<path id="Vector" d="M38.41 60.04C38.41 60.04 38.75 58.72 38.73 58.35L38.71 57.97L40.16 57.92C40.16 57.92 39.89 59.11 39.86 59.12C39.83 59.11 38.41 60.04 38.41 60.04Z" fill="#6B7B3E" fill-opacity="1.000000" fill-rule="nonzero"/>
		<path id="Vector" d="M38.41 60.03C39.46 59.79 40.35 59.84 40.35 59.84L40.16 57.92L38.41 60.03L38.41 60.03Z" fill="#4B5B19" fill-opacity="1.000000" fill-rule="nonzero"/>
		<path id="Vector" d="M40.24 61.57C40.24 61.57 40.28 60.22 40.17 59.86L40.06 59.5L41.46 59.11C41.46 59.11 41.47 60.34 41.44 60.34C41.41 60.35 40.24 61.57 40.24 61.57L40.24 61.57Z" fill="#6B7B3E" fill-opacity="1.000000" fill-rule="nonzero"/>
		<path id="Vector" d="M40.24 61.57C41.21 61.09 42.09 60.94 42.09 60.94L41.46 59.11L40.24 61.57Z" fill="#4B5B19" fill-opacity="1.000000" fill-rule="nonzero"/>
		<path id="Vector" d="M60.88 35.9C60.88 35.9 59.92 36.86 59.75 37.2L59.58 37.53L58.3 36.86C58.3 36.86 59.13 35.96 59.16 35.97C59.18 35.99 60.88 35.9 60.88 35.9Z" fill="#6B7B3E" fill-opacity="1.000000" fill-rule="nonzero"/>
		<path id="Vector" d="M60.88 35.9C59.84 35.59 59.09 35.1 59.09 35.1L58.3 36.86L60.88 35.9L60.88 35.9Z" fill="#4B5B19" fill-opacity="1.000000" fill-rule="nonzero"/>
		<path id="Vector" d="M60 33.58C60 33.58 59.37 34.77 59.31 35.15L59.25 35.52L57.82 35.25C57.82 35.25 58.35 34.14 58.38 34.14C58.41 34.15 60 33.58 60 33.58Z" fill="#6B7B3E" fill-opacity="1.000000" fill-rule="nonzero"/>
		<path id="Vector" d="M60 33.58C58.92 33.58 58.07 33.33 58.07 33.33L57.82 35.24L60 33.58L60 33.58Z" fill="#4B5B19" fill-opacity="1.000000" fill-rule="nonzero"/>
		<path id="Vector" d="M58.93 31.55C58.93 31.55 58.54 32.85 58.55 33.22L58.56 33.6L57.11 33.6C57.11 33.6 57.42 32.42 57.45 32.42C57.48 32.42 58.93 31.55 58.93 31.55L58.93 31.55Z" fill="#6B7B3E" fill-opacity="1.000000" fill-rule="nonzero"/>
		<path id="Vector" d="M58.93 31.55C57.87 31.76 56.98 31.68 56.98 31.68L57.11 33.61L58.93 31.55Z" fill="#4B5B19" fill-opacity="1.000000" fill-rule="nonzero"/>
		<path id="Vector" d="M58.07 33.35C58.07 33.35 57.68 34.65 57.68 35.02L57.69 35.4L56.24 35.41C56.24 35.41 56.55 34.22 56.58 34.22C56.61 34.22 58.07 33.35 58.07 33.35L58.07 33.35Z" fill="#6B7B3E" fill-opacity="1.000000" fill-rule="nonzero"/>
		<path id="Vector" d="M58.07 33.35C57.01 33.56 56.12 33.48 56.12 33.48L56.25 35.41L58.07 33.35Z" fill="#4B5B19" fill-opacity="1.000000" fill-rule="nonzero"/>
		<path id="Vector" d="M58.25 35.14C58.25 35.14 57.86 36.44 57.86 36.81L57.87 37.19L56.42 37.2C56.42 37.2 56.73 36.01 56.76 36.01C56.79 36.01 58.25 35.14 58.25 35.14L58.25 35.14Z" fill="#6B7B3E" fill-opacity="1.000000" fill-rule="nonzero"/>
		<path id="Vector" d="M58.25 35.14C57.18 35.35 56.3 35.27 56.3 35.27L56.42 37.2L58.25 35.14Z" fill="#4B5B19" fill-opacity="1.000000" fill-rule="nonzero"/>
		<path id="Vector" d="M58.57 36.7C58.57 36.7 58.18 38 58.19 38.38L58.2 38.75L56.75 38.76C56.75 38.76 57.06 37.57 57.09 37.57C57.12 37.57 58.57 36.7 58.57 36.7L58.57 36.7Z" fill="#6B7B3E" fill-opacity="1.000000" fill-rule="nonzero"/>
		<path id="Vector" d="M58.57 36.7C57.51 36.92 56.62 36.83 56.62 36.83L56.75 38.76L58.57 36.7Z" fill="#4B5B19" fill-opacity="1.000000" fill-rule="nonzero"/>
		<path id="Vector" d="M57.29 31.51C57.29 31.51 56.9 32.8 56.91 33.18L56.92 33.55L55.47 33.56C55.47 33.56 55.77 32.37 55.8 32.37C55.83 32.38 57.29 31.5 57.29 31.5L57.29 31.51Z" fill="#6B7B3E" fill-opacity="1.000000" fill-rule="nonzero"/>
		<path id="Vector" d="M57.29 31.51C56.23 31.72 55.34 31.63 55.34 31.63L55.47 33.56L57.29 31.51Z" fill="#4B5B19" fill-opacity="1.000000" fill-rule="nonzero"/>
		<path id="Vector" d="M56.14 29.95C56.14 29.95 55.75 31.25 55.76 31.63L55.77 32L54.32 32.01C54.32 32.01 54.63 30.82 54.66 30.82C54.69 30.82 56.14 29.95 56.14 29.95L56.14 29.95Z" fill="#6B7B3E" fill-opacity="1.000000" fill-rule="nonzero"/>
		<path id="Vector" d="M56.14 29.95C55.08 30.17 54.19 30.08 54.19 30.08L54.32 32.01L56.14 29.95Z" fill="#4B5B19" fill-opacity="1.000000" fill-rule="nonzero"/>
		<path id="Vector" d="M57.94 29.95C57.94 29.95 57.3 31.15 57.24 31.52L57.17 31.89L55.75 31.61C55.75 31.61 56.28 30.51 56.31 30.52C56.34 30.52 57.94 29.95 57.94 29.95Z" fill="#6B7B3E" fill-opacity="1.000000" fill-rule="nonzero"/>
		<path id="Vector" d="M57.94 29.95C56.86 29.96 56 29.69 56 29.69L55.75 31.61L57.94 29.95Z" fill="#4B5B19" fill-opacity="1.000000" fill-rule="nonzero"/>
		<path id="Vector" d="M56.63 28.06C56.63 28.06 56.28 29.38 56.3 29.75L56.33 30.12L54.87 30.19C54.87 30.19 55.14 28.99 55.17 28.99C55.2 28.99 56.63 28.06 56.63 28.06Z" fill="#6B7B3E" fill-opacity="1.000000" fill-rule="nonzero"/>
		<path id="Vector" d="M56.63 28.06C55.57 28.32 54.68 28.26 54.68 28.26L54.88 30.19L56.63 28.06Z" fill="#4B5B19" fill-opacity="1.000000" fill-rule="nonzero"/>
		<path id="Vector" d="M54.64 26.3C54.64 26.3 54.63 27.65 54.75 28.01L54.87 28.37L53.48 28.79C53.48 28.79 53.43 27.57 53.46 27.56C53.49 27.55 54.64 26.3 54.64 26.3Z" fill="#6B7B3E" fill-opacity="1.000000" fill-rule="nonzero"/>
		<path id="Vector" d="M54.64 26.3C53.68 26.81 52.8 26.98 52.8 26.98L53.48 28.79L54.64 26.3Z" fill="#4B5B19" fill-opacity="1.000000" fill-rule="nonzero"/>
		<path id="Vector" d="M53.19 25.53C53.19 25.53 52.99 26.87 53.06 27.24L53.12 27.61L51.69 27.83C51.69 27.83 51.82 26.61 51.85 26.61C51.88 26.6 53.19 25.53 53.19 25.53Z" fill="#6B7B3E" fill-opacity="1.000000" fill-rule="nonzero"/>
		<path id="Vector" d="M53.19 25.53C52.17 25.9 51.28 25.94 51.28 25.94L51.69 27.83L53.19 25.53Z" fill="#4B5B19" fill-opacity="1.000000" fill-rule="nonzero"/>
		<path id="Vector" d="M51.09 24.46C51.09 24.46 51.21 25.81 51.36 26.16L51.5 26.5L50.16 27.05C50.16 27.05 50.01 25.83 50.04 25.82C50.07 25.81 51.09 24.46 51.09 24.46Z" fill="#6B7B3E" fill-opacity="1.000000" fill-rule="nonzero"/>
		<path id="Vector" d="M51.09 24.46C50.19 25.05 49.33 25.3 49.33 25.3L50.16 27.05L51.09 24.46L51.09 24.46Z" fill="#4B5B19" fill-opacity="1.000000" fill-rule="nonzero"/>
		<path id="Vector" d="M61.75 52.77C61.75 52.77 60.4 52.92 60.06 53.08L59.72 53.24L59.13 51.91C59.13 51.91 60.35 51.72 60.36 51.75C60.37 51.78 61.75 52.77 61.75 52.77Z" fill="#6B7B3E" fill-opacity="1.000000" fill-rule="nonzero"/>
		<path id="Vector" d="M61.75 52.77C61.13 51.88 60.85 51.03 60.85 51.03L59.13 51.91L61.75 52.77Z" fill="#4B5B19" fill-opacity="1.000000" fill-rule="nonzero"/>
		<path id="Vector" d="M62.36 50.34C62.36 50.34 61.09 50.8 60.8 51.03L60.5 51.27L59.62 50.11C59.62 50.11 60.76 49.64 60.78 49.67C60.79 49.69 62.36 50.33 62.36 50.33L62.36 50.34Z" fill="#6B7B3E" fill-opacity="1.000000" fill-rule="nonzero"/>
		<path id="Vector" d="M62.37 50.34C61.56 49.61 61.09 48.85 61.09 48.85L59.63 50.11L62.37 50.34Z" fill="#4B5B19" fill-opacity="1.000000" fill-rule="nonzero"/>
		<path id="Vector" d="M62.74 47.83C62.74 47.83 61.63 48.6 61.4 48.9L61.18 49.2L60.04 48.3C60.04 48.3 61.02 47.56 61.04 47.58C61.06 47.6 62.74 47.83 62.74 47.83Z" fill="#6B7B3E" fill-opacity="1.000000" fill-rule="nonzero"/>
		<path id="Vector" d="M62.74 47.83C61.78 47.33 61.14 46.71 61.14 46.71L60.03 48.3L62.74 47.83Z" fill="#4B5B19" fill-opacity="1.000000" fill-rule="nonzero"/>
		<path id="Vector" d="M62.84 45.85C62.84 45.85 61.6 46.39 61.32 46.64L61.03 46.89L60.09 45.79C60.09 45.79 61.2 45.26 61.22 45.28C61.24 45.3 62.84 45.86 62.84 45.86L62.84 45.85Z" fill="#6B7B3E" fill-opacity="1.000000" fill-rule="nonzero"/>
		<path id="Vector" d="M62.84 45.85C61.99 45.18 61.48 44.44 61.48 44.44L60.09 45.79L62.84 45.85L62.84 45.85Z" fill="#4B5B19" fill-opacity="1.000000" fill-rule="nonzero"/>
		<path id="Vector" d="M61.24 45.39C61.24 45.39 60 45.93 59.71 46.18L59.43 46.43L58.49 45.33C58.49 45.33 59.6 44.79 59.62 44.82C59.64 44.84 61.24 45.39 61.24 45.39L61.24 45.39Z" fill="#6B7B3E" fill-opacity="1.000000" fill-rule="nonzero"/>
		<path id="Vector" d="M61.24 45.39C60.39 44.72 59.88 43.98 59.88 43.98L58.49 45.33L61.24 45.39Z" fill="#4B5B19" fill-opacity="1.000000" fill-rule="nonzero"/>
		<path id="Vector" d="M59.92 43.98C59.92 43.98 58.67 44.52 58.39 44.77L58.11 45.02L57.17 43.91C57.17 43.91 58.28 43.38 58.29 43.41C58.31 43.43 59.92 43.98 59.92 43.98L59.92 43.98Z" fill="#6B7B3E" fill-opacity="1.000000" fill-rule="nonzero"/>
		<path id="Vector" d="M59.92 43.98C59.07 43.31 58.56 42.57 58.56 42.57L57.17 43.91L59.92 43.98L59.92 43.98Z" fill="#4B5B19" fill-opacity="1.000000" fill-rule="nonzero"/>
		<path id="Vector" d="M61.69 47.16C61.69 47.16 60.45 47.7 60.16 47.95L59.88 48.2L58.94 47.1C58.94 47.1 60.05 46.56 60.07 46.59C60.08 46.61 61.69 47.16 61.69 47.16L61.69 47.16Z" fill="#6B7B3E" fill-opacity="1.000000" fill-rule="nonzero"/>
		<path id="Vector" d="M61.69 47.16C60.84 46.49 60.33 45.75 60.33 45.75L58.94 47.09L61.69 47.16L61.69 47.16Z" fill="#4B5B19" fill-opacity="1.000000" fill-rule="nonzero"/>
		<path id="Vector" d="M61.15 49.31C61.15 49.31 59.91 49.85 59.63 50.1L59.35 50.35L58.4 49.25C58.4 49.25 59.51 48.72 59.53 48.74C59.55 48.76 61.15 49.32 61.15 49.32L61.15 49.31Z" fill="#6B7B3E" fill-opacity="1.000000" fill-rule="nonzero"/>
		<path id="Vector" d="M61.15 49.31C60.31 48.64 59.8 47.9 59.8 47.9L58.41 49.25L61.15 49.31L61.15 49.31Z" fill="#4B5B19" fill-opacity="1.000000" fill-rule="nonzero"/>
		<path id="Vector" d="M60.85 51.31C60.85 51.31 59.61 51.84 59.33 52.1L59.04 52.35L58.1 51.24C58.1 51.24 59.21 50.71 59.23 50.74C59.25 50.76 60.85 51.31 60.85 51.31L60.85 51.31Z" fill="#6B7B3E" fill-opacity="1.000000" fill-rule="nonzero"/>
		<path id="Vector" d="M60.85 51.31C60 50.64 59.5 49.9 59.5 49.9L58.1 51.24L60.85 51.31L60.85 51.31Z" fill="#4B5B19" fill-opacity="1.000000" fill-rule="nonzero"/>
		<path id="Vector" d="M62.66 43.64C62.66 43.64 61.57 44.45 61.36 44.76L61.14 45.07L59.97 44.21C59.97 44.21 60.92 43.44 60.95 43.46C60.97 43.48 62.66 43.64 62.66 43.64L62.66 43.64Z" fill="#6B7B3E" fill-opacity="1.000000" fill-rule="nonzero"/>
		<path id="Vector" d="M62.66 43.64C61.68 43.18 61.01 42.59 61.01 42.59L59.97 44.21L62.66 43.64L62.66 43.64Z" fill="#4B5B19" fill-opacity="1.000000" fill-rule="nonzero"/>
		<path id="Vector" d="M62.54 41.58C62.54 41.58 61.69 42.64 61.56 42.99L61.43 43.34L60.08 42.81C60.08 42.81 60.81 41.82 60.83 41.83C60.86 41.85 62.54 41.58 62.54 41.58Z" fill="#6B7B3E" fill-opacity="1.000000" fill-rule="nonzero"/>
		<path id="Vector" d="M62.54 41.58C61.47 41.38 60.68 40.97 60.68 40.97L60.08 42.81L62.54 41.58L62.54 41.58Z" fill="#4B5B19" fill-opacity="1.000000" fill-rule="nonzero"/>
		<path id="Vector" d="M61.97 40.01C61.97 40.01 60.98 40.94 60.8 41.27L60.62 41.6L59.36 40.88C59.36 40.88 60.23 40 60.25 40.02C60.28 40.04 61.97 40.01 61.97 40.01Z" fill="#6B7B3E" fill-opacity="1.000000" fill-rule="nonzero"/>
		<path id="Vector" d="M61.97 40.01C60.95 39.66 60.22 39.14 60.22 39.14L59.36 40.88L61.97 40.01Z" fill="#4B5B19" fill-opacity="1.000000" fill-rule="nonzero"/>
		<path id="Vector" d="M61.24 37.74C61.24 37.74 60.49 38.87 60.39 39.23L60.29 39.59L58.9 39.18C58.9 39.18 59.53 38.13 59.56 38.14C59.59 38.15 61.24 37.74 61.24 37.74Z" fill="#6B7B3E" fill-opacity="1.000000" fill-rule="nonzero"/>
		<path id="Vector" d="M61.24 37.74C60.16 37.63 59.33 37.29 59.33 37.29L58.9 39.18L61.24 37.74Z" fill="#4B5B19" fill-opacity="1.000000" fill-rule="nonzero"/>
		<path id="Vector" d="M60.25 54.99C60.25 54.99 58.92 54.78 58.55 54.84L58.17 54.9L57.97 53.46C57.97 53.46 59.19 53.61 59.19 53.64C59.2 53.67 60.25 54.99 60.25 54.99L60.25 54.99Z" fill="#6B7B3E" fill-opacity="1.000000" fill-rule="nonzero"/>
		<path id="Vector" d="M60.25 54.99C59.9 53.97 59.87 53.08 59.87 53.08L57.97 53.46L60.25 54.99Z" fill="#4B5B19" fill-opacity="1.000000" fill-rule="nonzero"/>
		<path id="Vector" d="M60.21 38.09C60.21 38.09 59.16 38.95 58.96 39.27L58.75 39.58L57.55 38.78C57.55 38.78 58.47 37.97 58.49 37.98C58.52 38 60.21 38.09 60.21 38.09Z" fill="#6B7B3E" fill-opacity="1.000000" fill-rule="nonzero"/>
		<path id="Vector" d="M60.21 38.09C59.21 37.68 58.52 37.11 58.52 37.11L57.55 38.78L60.21 38.09Z" fill="#4B5B19" fill-opacity="1.000000" fill-rule="nonzero"/>
		<path id="Vector" d="M59.63 35.77C59.63 35.77 58.81 36.85 58.68 37.2L58.56 37.56L57.2 37.05C57.2 37.05 57.9 36.05 57.93 36.06C57.96 36.07 59.63 35.77 59.63 35.77L59.63 35.77Z" fill="#6B7B3E" fill-opacity="1.000000" fill-rule="nonzero"/>
		<path id="Vector" d="M59.63 35.77C58.56 35.6 57.76 35.2 57.76 35.2L57.2 37.05L59.63 35.77Z" fill="#4B5B19" fill-opacity="1.000000" fill-rule="nonzero"/>
		<path id="Vector" d="M59.29 54.96C59.29 54.96 57.94 54.97 57.58 55.09L57.23 55.22L56.78 53.83C56.78 53.83 58.01 53.77 58.02 53.8C58.03 53.83 59.29 54.96 59.29 54.96L59.29 54.96Z" fill="#6B7B3E" fill-opacity="1.000000" fill-rule="nonzero"/>
		<path id="Vector" d="M59.29 54.96C58.77 54.01 58.59 53.13 58.59 53.13L56.78 53.83L59.29 54.96L59.29 54.96Z" fill="#4B5B19" fill-opacity="1.000000" fill-rule="nonzero"/>
		<path id="Vector" d="M60.16 52.61C60.16 52.61 58.85 52.94 58.53 53.14L58.21 53.34L57.46 52.09C57.46 52.09 58.64 51.75 58.66 51.78C58.67 51.8 60.16 52.61 60.16 52.61Z" fill="#6B7B3E" fill-opacity="1.000000" fill-rule="nonzero"/>
		<path id="Vector" d="M60.16 52.61C59.44 51.81 59.06 51 59.06 51L57.46 52.09L60.16 52.61Z" fill="#4B5B19" fill-opacity="1.000000" fill-rule="nonzero"/>
		<path id="Vector" d="M60.81 50.15C60.81 50.15 59.62 50.8 59.36 51.07L59.1 51.35L58.06 50.34C58.06 50.34 59.11 49.71 59.14 49.73C59.16 49.75 60.81 50.15 60.81 50.15L60.81 50.15Z" fill="#6B7B3E" fill-opacity="1.000000" fill-rule="nonzero"/>
		<path id="Vector" d="M60.8 50.15C59.9 49.56 59.33 48.87 59.33 48.87L58.06 50.34L60.8 50.15Z" fill="#4B5B19" fill-opacity="1.000000" fill-rule="nonzero"/>
		<path id="Vector" d="M61.15 48.42C61.15 48.42 59.85 48.82 59.55 49.04L59.24 49.26L58.42 48.06C58.42 48.06 59.58 47.65 59.59 47.68C59.61 47.7 61.15 48.42 61.15 48.42Z" fill="#6B7B3E" fill-opacity="1.000000" fill-rule="nonzero"/>
		<path id="Vector" d="M61.15 48.42C60.37 47.66 59.95 46.88 59.95 46.88L58.42 48.06L61.15 48.42Z" fill="#4B5B19" fill-opacity="1.000000" fill-rule="nonzero"/>
		<path id="Vector" d="M61.2 46.2C61.2 46.2 60.03 46.9 59.79 47.18L59.54 47.46L58.46 46.49C58.46 46.49 59.5 45.82 59.52 45.84C59.54 45.86 61.2 46.2 61.2 46.2L61.2 46.2Z" fill="#6B7B3E" fill-opacity="1.000000" fill-rule="nonzero"/>
		<path id="Vector" d="M61.2 46.2C60.27 45.64 59.68 44.98 59.68 44.98L58.47 46.49L61.2 46.2Z" fill="#4B5B19" fill-opacity="1.000000" fill-rule="nonzero"/>
		<path id="Vector" d="M61.26 43.92C61.26 43.92 60.31 44.88 60.14 45.22L59.97 45.55L58.68 44.88C58.68 44.88 59.51 43.98 59.54 43.99C59.57 44.01 61.26 43.92 61.26 43.92Z" fill="#6B7B3E" fill-opacity="1.000000" fill-rule="nonzero"/>
		<path id="Vector" d="M61.26 43.92C60.22 43.61 59.48 43.12 59.48 43.12L58.68 44.88L61.26 43.92Z" fill="#4B5B19" fill-opacity="1.000000" fill-rule="nonzero"/>
		<path id="Vector" d="M60.87 42.3C60.87 42.3 59.78 43.12 59.57 43.43L59.35 43.73L58.18 42.89C58.18 42.89 59.13 42.11 59.15 42.13C59.18 42.14 60.87 42.3 60.87 42.3Z" fill="#6B7B3E" fill-opacity="1.000000" fill-rule="nonzero"/>
		<path id="Vector" d="M60.87 42.3C59.88 41.85 59.22 41.25 59.22 41.25L58.18 42.89L60.86 42.3L60.87 42.3Z" fill="#4B5B19" fill-opacity="1.000000" fill-rule="nonzero"/>
		<path id="Vector" d="M60.37 39.96C60.37 39.96 59.51 41 59.37 41.35L59.23 41.7L57.89 41.15C57.89 41.15 58.64 40.17 58.67 40.18C58.69 40.2 60.37 39.96 60.37 39.96L60.37 39.96Z" fill="#6B7B3E" fill-opacity="1.000000" fill-rule="nonzero"/>
		<path id="Vector" d="M60.37 39.96C59.31 39.74 58.53 39.32 58.53 39.32L57.89 41.15L60.37 39.96Z" fill="#4B5B19" fill-opacity="1.000000" fill-rule="nonzero"/>
		<path id="Vector" d="M57.57 57.02C57.57 57.02 56.27 56.66 55.89 56.68L55.51 56.7L55.47 55.25C55.47 55.25 56.66 55.52 56.66 55.56C56.66 55.59 57.57 57.02 57.57 57.02L57.57 57.02Z" fill="#6B7B3E" fill-opacity="1.000000" fill-rule="nonzero"/>
		<path id="Vector" d="M57.57 57.02C57.33 55.96 57.39 55.07 57.39 55.07L55.47 55.25L57.57 57.02Z" fill="#4B5B19" fill-opacity="1.000000" fill-rule="nonzero"/>
		<path id="Vector" d="M57.61 35.04C57.61 35.04 56.66 36.01 56.5 36.35L56.33 36.69L55.04 36.03C55.04 36.03 55.86 35.11 55.89 35.13C55.92 35.14 57.61 35.04 57.61 35.04L57.61 35.04Z" fill="#6B7B3E" fill-opacity="1.000000" fill-rule="nonzero"/>
		<path id="Vector" d="M57.61 35.04C56.57 34.74 55.82 34.26 55.82 34.26L55.04 36.03L57.61 35.04Z" fill="#4B5B19" fill-opacity="1.000000" fill-rule="nonzero"/>
		<path id="Vector" d="M56.77 32.8C56.77 32.8 56.07 33.97 55.99 34.33L55.91 34.7L54.5 34.35C54.5 34.35 55.09 33.28 55.12 33.29C55.15 33.29 56.77 32.8 56.77 32.8L56.77 32.8Z" fill="#6B7B3E" fill-opacity="1.000000" fill-rule="nonzero"/>
		<path id="Vector" d="M56.77 32.8C55.69 32.75 54.84 32.45 54.84 32.45L54.5 34.35L56.77 32.8L56.77 32.8Z" fill="#4B5B19" fill-opacity="1.000000" fill-rule="nonzero"/>
		<path id="Vector" d="M58.62 51.9C58.62 51.9 57.28 52.07 56.94 52.23L56.6 52.4L56 51.07C56 51.07 57.21 50.87 57.22 50.9C57.24 50.93 58.62 51.9 58.62 51.9Z" fill="#6B7B3E" fill-opacity="1.000000" fill-rule="nonzero"/>
		<path id="Vector" d="M58.62 51.9C58 51.02 57.71 50.17 57.71 50.17L56 51.07L58.62 51.9L58.62 51.9Z" fill="#4B5B19" fill-opacity="1.000000" fill-rule="nonzero"/>
		<path id="Vector" d="M59.22 49.47C59.22 49.47 57.95 49.95 57.66 50.18L57.36 50.42L56.48 49.27C56.48 49.27 57.61 48.79 57.63 48.82C57.64 48.84 59.22 49.47 59.22 49.47Z" fill="#6B7B3E" fill-opacity="1.000000" fill-rule="nonzero"/>
		<path id="Vector" d="M59.22 49.47C58.41 48.76 57.94 48 57.94 48L56.48 49.27L59.22 49.47Z" fill="#4B5B19" fill-opacity="1.000000" fill-rule="nonzero"/>
		<path id="Vector" d="M59.58 46.96C59.58 46.96 58.47 47.74 58.25 48.04L58.02 48.34L56.87 47.45C56.87 47.45 57.85 46.71 57.87 46.73C57.9 46.75 59.58 46.96 59.58 46.96L59.58 46.96Z" fill="#6B7B3E" fill-opacity="1.000000" fill-rule="nonzero"/>
		<path id="Vector" d="M59.58 46.96C58.61 46.47 57.96 45.85 57.96 45.85L56.87 47.45L59.58 46.96Z" fill="#4B5B19" fill-opacity="1.000000" fill-rule="nonzero"/>
		<path id="Vector" d="M59.72 45.2C59.72 45.2 58.48 45.75 58.2 46L57.92 46.25L56.97 45.15C56.97 45.15 58.07 44.61 58.09 44.64C58.11 44.66 59.72 45.2 59.72 45.2Z" fill="#6B7B3E" fill-opacity="1.000000" fill-rule="nonzero"/>
		<path id="Vector" d="M59.72 45.2C58.86 44.53 58.35 43.8 58.35 43.8L56.97 45.15L59.72 45.2Z" fill="#4B5B19" fill-opacity="1.000000" fill-rule="nonzero"/>
		<path id="Vector" d="M59.52 42.99C59.52 42.99 58.44 43.81 58.22 44.12L58.01 44.43L56.83 43.58C56.83 43.58 57.78 42.8 57.8 42.82C57.83 42.84 59.52 42.99 59.52 42.99L59.52 42.99Z" fill="#6B7B3E" fill-opacity="1.000000" fill-rule="nonzero"/>
		<path id="Vector" d="M59.52 42.99C58.53 42.54 57.86 41.94 57.86 41.94L56.83 43.58L59.52 42.99Z" fill="#4B5B19" fill-opacity="1.000000" fill-rule="nonzero"/>
		<path id="Vector" d="M59.32 40.71C59.32 40.71 58.48 41.77 58.35 42.13L58.22 42.48L56.87 41.96C56.87 41.96 57.59 40.97 57.62 40.98C57.64 40.99 59.32 40.71 59.32 40.71L59.32 40.71Z" fill="#6B7B3E" fill-opacity="1.000000" fill-rule="nonzero"/>
		<path id="Vector" d="M59.32 40.71C58.25 40.52 57.45 40.12 57.45 40.12L56.87 41.96L59.32 40.71Z" fill="#4B5B19" fill-opacity="1.000000" fill-rule="nonzero"/>
		<path id="Vector" d="M58.74 39.15C58.74 39.15 57.76 40.08 57.58 40.41L57.4 40.75L56.14 40.04C56.14 40.04 56.99 39.16 57.02 39.17C57.04 39.19 58.74 39.15 58.74 39.15L58.74 39.15Z" fill="#6B7B3E" fill-opacity="1.000000" fill-rule="nonzero"/>
		<path id="Vector" d="M58.74 39.15C57.71 38.81 56.98 38.29 56.98 38.29L56.14 40.04L58.74 39.15Z" fill="#4B5B19" fill-opacity="1.000000" fill-rule="nonzero"/>
		<path id="Vector" d="M57.99 36.88C57.99 36.88 57.24 38.01 57.15 38.38L57.05 38.74L55.66 38.34C55.66 38.34 56.28 37.29 56.31 37.3C56.34 37.31 57.99 36.88 57.99 36.88Z" fill="#6B7B3E" fill-opacity="1.000000" fill-rule="nonzero"/>
		<path id="Vector" d="M57.98 36.88C56.91 36.79 56.08 36.45 56.08 36.45L55.66 38.34L57.98 36.88Z" fill="#4B5B19" fill-opacity="1.000000" fill-rule="nonzero"/>
		<path id="Vector" d="M57.15 54.14C57.15 54.14 55.81 53.94 55.44 54L55.07 54.07L54.85 52.63C54.85 52.63 56.07 52.77 56.08 52.8C56.08 52.83 57.15 54.14 57.15 54.14Z" fill="#6B7B3E" fill-opacity="1.000000" fill-rule="nonzero"/>
		<path id="Vector" d="M57.15 54.14C56.79 53.12 56.75 52.23 56.75 52.23L54.85 52.63L57.15 54.15L57.15 54.14Z" fill="#4B5B19" fill-opacity="1.000000" fill-rule="nonzero"/>
		<path id="Vector" d="M56.46 34.31C56.46 34.31 55.51 35.28 55.34 35.62L55.18 35.96L53.89 35.29C53.89 35.29 54.71 34.38 54.74 34.4C54.76 34.41 56.46 34.31 56.46 34.31L56.46 34.31Z" fill="#6B7B3E" fill-opacity="1.000000" fill-rule="nonzero"/>
		<path id="Vector" d="M56.46 34.31C55.42 34.01 54.67 33.52 54.67 33.52L53.89 35.29L56.46 34.31Z" fill="#4B5B19" fill-opacity="1.000000" fill-rule="nonzero"/>
		<path id="Vector" d="M55.62 32.07C55.62 32.07 54.92 33.23 54.84 33.6L54.75 33.97L53.34 33.62C53.34 33.62 53.93 32.54 53.96 32.55C53.99 32.56 55.62 32.07 55.62 32.07L55.62 32.07Z" fill="#6B7B3E" fill-opacity="1.000000" fill-rule="nonzero"/>
		<path id="Vector" d="M55.62 32.07C54.54 32.02 53.69 31.72 53.69 31.72L53.34 33.62L55.62 32.07L55.62 32.07Z" fill="#4B5B19" fill-opacity="1.000000" fill-rule="nonzero"/>
		<path id="Vector" d="M57.47 51.17C57.47 51.17 56.13 51.34 55.79 51.5L55.45 51.66L54.85 50.34C54.85 50.34 56.06 50.14 56.07 50.17C56.08 50.19 57.47 51.17 57.47 51.17Z" fill="#6B7B3E" fill-opacity="1.000000" fill-rule="nonzero"/>
		<path id="Vector" d="M57.47 51.17C56.85 50.29 56.56 49.44 56.56 49.44L54.85 50.34L57.47 51.17L57.47 51.17Z" fill="#4B5B19" fill-opacity="1.000000" fill-rule="nonzero"/>
		<path id="Vector" d="M58.07 48.74C58.07 48.74 56.8 49.21 56.51 49.45L56.21 49.68L55.33 48.53C55.33 48.53 56.46 48.06 56.48 48.08C56.49 48.11 58.07 48.74 58.07 48.74Z" fill="#6B7B3E" fill-opacity="1.000000" fill-rule="nonzero"/>
		<path id="Vector" d="M58.07 48.74C57.25 48.02 56.78 47.26 56.78 47.26L55.33 48.53L58.07 48.74Z" fill="#4B5B19" fill-opacity="1.000000" fill-rule="nonzero"/>
		<path id="Vector" d="M58.42 46.22C58.42 46.22 57.32 47 57.09 47.3L56.87 47.61L55.72 46.72C55.72 46.72 56.7 45.97 56.72 45.99C56.74 46.01 58.43 46.22 58.43 46.22L58.42 46.22Z" fill="#6B7B3E" fill-opacity="1.000000" fill-rule="nonzero"/>
		<path id="Vector" d="M58.42 46.22C57.46 45.74 56.81 45.12 56.81 45.12L55.72 46.72L58.42 46.22Z" fill="#4B5B19" fill-opacity="1.000000" fill-rule="nonzero"/>
		<path id="Vector" d="M58.57 44.46C58.57 44.46 57.33 45.01 57.05 45.26L56.77 45.51L55.82 44.42C55.82 44.42 56.92 43.88 56.94 43.9C56.96 43.93 58.57 44.46 58.57 44.46Z" fill="#6B7B3E" fill-opacity="1.000000" fill-rule="nonzero"/>
		<path id="Vector" d="M58.57 44.46C57.71 43.8 57.2 43.07 57.2 43.07L55.82 44.42L58.57 44.46Z" fill="#4B5B19" fill-opacity="1.000000" fill-rule="nonzero"/>
		<path id="Vector" d="M58.37 42.26C58.37 42.26 57.29 43.08 57.07 43.38L56.86 43.69L55.68 42.85C55.68 42.85 56.63 42.07 56.65 42.09C56.68 42.11 58.37 42.26 58.37 42.26L58.37 42.26Z" fill="#6B7B3E" fill-opacity="1.000000" fill-rule="nonzero"/>
		<path id="Vector" d="M58.37 42.26C57.38 41.81 56.71 41.21 56.71 41.21L55.68 42.85L58.37 42.26Z" fill="#4B5B19" fill-opacity="1.000000" fill-rule="nonzero"/>
		<path id="Vector" d="M57.3 47.53C57.3 47.53 56.19 48.31 55.97 48.61L55.74 48.91L54.59 48.02C54.59 48.02 55.57 47.28 55.59 47.3C55.62 47.32 57.3 47.53 57.3 47.53L57.3 47.53Z" fill="#6B7B3E" fill-opacity="1.000000" fill-rule="nonzero"/>
		<path id="Vector" d="M57.3 47.53C56.33 47.04 55.68 46.42 55.68 46.42L54.59 48.02L57.3 47.53Z" fill="#4B5B19" fill-opacity="1.000000" fill-rule="nonzero"/>
		<path id="Vector" d="M55.81 49.1C55.81 49.1 54.7 49.88 54.48 50.18L54.25 50.48L53.11 49.6C53.11 49.6 54.08 48.85 54.1 48.87C54.13 48.89 55.81 49.1 55.81 49.1L55.81 49.1Z" fill="#6B7B3E" fill-opacity="1.000000" fill-rule="nonzero"/>
		<path id="Vector" d="M55.81 49.1C54.84 48.61 54.2 48 54.2 48L53.11 49.6L55.81 49.1Z" fill="#4B5B19" fill-opacity="1.000000" fill-rule="nonzero"/>
		<path id="Vector" d="M57.44 45.77C57.44 45.77 56.2 46.32 55.92 46.57L55.64 46.82L54.69 45.72C54.69 45.72 55.79 45.18 55.81 45.21C55.83 45.23 57.44 45.77 57.44 45.77Z" fill="#6B7B3E" fill-opacity="1.000000" fill-rule="nonzero"/>
		<path id="Vector" d="M57.44 45.77C56.58 45.1 56.07 44.37 56.07 44.37L54.69 45.72L57.44 45.77Z" fill="#4B5B19" fill-opacity="1.000000" fill-rule="nonzero"/>
		<path id="Vector" d="M57.24 43.56C57.24 43.56 56.16 44.38 55.94 44.69L55.73 45L54.55 44.15C54.55 44.15 55.5 43.37 55.52 43.39C55.55 43.41 57.24 43.56 57.24 43.56L57.24 43.56Z" fill="#6B7B3E" fill-opacity="1.000000" fill-rule="nonzero"/>
		<path id="Vector" d="M57.24 43.56C56.25 43.11 55.58 42.52 55.58 42.52L54.55 44.15L57.24 43.56L57.24 43.56Z" fill="#4B5B19" fill-opacity="1.000000" fill-rule="nonzero"/>
		<path id="Vector" d="M58.16 39.98C58.16 39.98 57.33 41.04 57.2 41.39L57.07 41.75L55.72 41.23C55.72 41.23 56.43 40.23 56.46 40.25C56.49 40.26 58.16 39.98 58.16 39.98L58.16 39.98Z" fill="#6B7B3E" fill-opacity="1.000000" fill-rule="nonzero"/>
		<path id="Vector" d="M58.16 39.98C57.1 39.79 56.3 39.38 56.3 39.38L55.72 41.23L58.16 39.98Z" fill="#4B5B19" fill-opacity="1.000000" fill-rule="nonzero"/>
		<path id="Vector" d="M57.59 38.42C57.59 38.42 56.61 39.35 56.43 39.68L56.25 40.01L54.99 39.3C54.99 39.3 55.84 38.42 55.87 38.44C55.89 38.45 57.59 38.42 57.59 38.42Z" fill="#6B7B3E" fill-opacity="1.000000" fill-rule="nonzero"/>
		<path id="Vector" d="M57.59 38.42C56.56 38.08 55.83 37.56 55.83 37.56L54.99 39.3L57.59 38.42Z" fill="#4B5B19" fill-opacity="1.000000" fill-rule="nonzero"/>
		<path id="Vector" d="M56.83 36.15C56.83 36.15 56.09 37.28 56 37.64L55.9 38.01L54.5 37.61C54.5 37.61 55.13 36.55 55.16 36.56C55.19 36.57 56.83 36.15 56.83 36.15Z" fill="#6B7B3E" fill-opacity="1.000000" fill-rule="nonzero"/>
		<path id="Vector" d="M56.83 36.15C55.75 36.05 54.92 35.72 54.92 35.72L54.5 37.61L56.83 36.15Z" fill="#4B5B19" fill-opacity="1.000000" fill-rule="nonzero"/>
		<path id="Vector" d="M56 53.41C56 53.41 54.66 53.21 54.29 53.27L53.92 53.33L53.7 51.9C53.7 51.9 54.92 52.04 54.93 52.06C54.93 52.1 56 53.41 56 53.41Z" fill="#6B7B3E" fill-opacity="1.000000" fill-rule="nonzero"/>
		<path id="Vector" d="M56 53.41C55.64 52.39 55.6 51.5 55.6 51.5L53.7 51.9L56 53.41Z" fill="#4B5B19" fill-opacity="1.000000" fill-rule="nonzero"/>
		<path id="Vector" d="M44.98 63.34C44.98 63.34 44.26 62.19 43.98 61.95L43.69 61.71L44.63 60.61C44.63 60.61 45.33 61.63 45.31 61.65C45.28 61.67 44.98 63.34 44.98 63.34L44.98 63.34Z" fill="#6B7B3E" fill-opacity="1.000000" fill-rule="nonzero"/>
		<path id="Vector" d="M44.98 63.34C45.52 62.4 46.17 61.79 46.17 61.79L44.63 60.62L44.98 63.34L44.98 63.34Z" fill="#4B5B19" fill-opacity="1.000000" fill-rule="nonzero"/>
		<path id="Vector" d="M47.35 63.41C47.35 63.41 46.39 62.45 46.05 62.29L45.71 62.12L46.38 60.83C46.38 60.83 47.29 61.66 47.28 61.69C47.26 61.71 47.35 63.41 47.35 63.41Z" fill="#6B7B3E" fill-opacity="1.000000" fill-rule="nonzero"/>
		<path id="Vector" d="M47.35 63.41C47.66 62.37 48.15 61.62 48.15 61.62L46.39 60.83L47.35 63.41L47.35 63.41Z" fill="#4B5B19" fill-opacity="1.000000" fill-rule="nonzero"/>
		<path id="Vector" d="M49.5 63.1C49.5 63.1 48.32 62.42 47.95 62.35L47.59 62.27L47.91 60.86C47.91 60.86 49 61.43 48.99 61.46C48.98 61.49 49.5 63.1 49.5 63.1L49.5 63.1Z" fill="#6B7B3E" fill-opacity="1.000000" fill-rule="nonzero"/>
		<path id="Vector" d="M49.5 63.1C49.53 62.02 49.82 61.17 49.82 61.17L47.91 60.86L49.5 63.1L49.5 63.1Z" fill="#4B5B19" fill-opacity="1.000000" fill-rule="nonzero"/>
		<path id="Vector" d="M51.18 62.96C51.18 62.96 50 62.3 49.63 62.22L49.26 62.15L49.56 60.73C49.56 60.73 50.66 61.29 50.65 61.32C50.64 61.35 51.18 62.96 51.18 62.96L51.18 62.96Z" fill="#6B7B3E" fill-opacity="1.000000" fill-rule="nonzero"/>
		<path id="Vector" d="M51.18 62.96C51.2 61.88 51.48 61.03 51.48 61.03L49.57 60.73L51.18 62.96Z" fill="#4B5B19" fill-opacity="1.000000" fill-rule="nonzero"/>
		<path id="Vector" d="M54.57 61.15C54.57 61.15 53.38 60.52 53.01 60.45L52.64 60.39L52.91 58.97C52.91 58.97 54.01 59.5 54.01 59.53C54 59.56 54.57 61.15 54.57 61.15L54.57 61.15Z" fill="#6B7B3E" fill-opacity="1.000000" fill-rule="nonzero"/>
		<path id="Vector" d="M54.58 61.15C54.57 60.07 54.83 59.21 54.83 59.21L52.91 58.96L54.58 61.15Z" fill="#4B5B19" fill-opacity="1.000000" fill-rule="nonzero"/>
		<path id="Vector" d="M53.21 62.24C53.21 62.24 52.01 61.6 51.64 61.54L51.27 61.47L51.54 60.05C51.54 60.05 52.65 60.58 52.64 60.61C52.63 60.64 53.21 62.24 53.21 62.24L53.21 62.24Z" fill="#6B7B3E" fill-opacity="1.000000" fill-rule="nonzero"/>
		<path id="Vector" d="M53.21 62.24C53.2 61.16 53.46 60.3 53.46 60.3L51.54 60.05L53.21 62.24Z" fill="#4B5B19" fill-opacity="1.000000" fill-rule="nonzero"/>
		<path id="Vector" d="M56.41 59.67C56.41 59.67 55.09 59.36 54.72 59.39L54.35 59.42L54.25 57.97C54.25 57.97 55.45 58.21 55.46 58.24C55.46 58.27 56.41 59.67 56.41 59.67L56.41 59.67Z" fill="#6B7B3E" fill-opacity="1.000000" fill-rule="nonzero"/>
		<path id="Vector" d="M56.41 59.67C56.14 58.62 56.17 57.73 56.17 57.73L54.25 57.97L56.41 59.67Z" fill="#4B5B19" fill-opacity="1.000000" fill-rule="nonzero"/>
		<path id="Vector" d="M57.76 58.14C57.76 58.14 56.42 57.93 56.05 58L55.68 58.06L55.46 56.62C55.46 56.62 56.68 56.76 56.69 56.79C56.69 56.82 57.76 58.14 57.76 58.14Z" fill="#6B7B3E" fill-opacity="1.000000" fill-rule="nonzero"/>
		<path id="Vector" d="M57.76 58.14C57.4 57.12 57.36 56.22 57.36 56.22L55.46 56.62L57.76 58.14Z" fill="#4B5B19" fill-opacity="1.000000" fill-rule="nonzero"/>
		<path id="Vector" d="M59.04 56.71C59.04 56.71 57.7 56.51 57.33 56.58L56.96 56.64L56.73 55.21C56.73 55.21 57.95 55.34 57.96 55.37C57.96 55.4 59.04 56.71 59.04 56.71L59.04 56.71Z" fill="#6B7B3E" fill-opacity="1.000000" fill-rule="nonzero"/>
		<path id="Vector" d="M59.04 56.71C58.67 55.69 58.62 54.8 58.62 54.8L56.73 55.21L59.04 56.71Z" fill="#4B5B19" fill-opacity="1.000000" fill-rule="nonzero"/>
		<path id="Vector" d="M42.47 62.72C42.47 62.72 42.16 61.4 41.97 61.08L41.77 60.76L43.03 60.03C43.03 60.03 43.35 61.21 43.33 61.23C43.3 61.24 42.47 62.72 42.47 62.72L42.47 62.72Z" fill="#6B7B3E" fill-opacity="1.000000" fill-rule="nonzero"/>
		<path id="Vector" d="M42.47 62.72C43.28 62.01 44.1 61.64 44.1 61.64L43.03 60.03L42.47 62.72L42.47 62.72Z" fill="#4B5B19" fill-opacity="1.000000" fill-rule="nonzero"/>
		<path id="Vector" d="M47.36 22.32L48.71 22.62L48.73 22L47.36 22.32Z" fill="#261C02" fill-opacity="1.000000" fill-rule="nonzero"/>
		<path id="Vector" d="M46.85 19.33C46.85 19.33 47.48 19.64 48.12 19.62C48.76 19.61 48.71 19.35 48.71 19.35L48.63 18.91C48.63 18.91 48.36 19.18 47.96 19.26C47.56 19.35 46.85 19.33 46.85 19.33L46.85 19.33Z" fill="#261C02" fill-opacity="1.000000" fill-rule="nonzero"/>
		<path id="Vector" d="M47.34 21.56C47.34 21.56 47.97 21.87 48.61 21.85C49.25 21.84 49.19 21.58 49.19 21.58L49.11 21.14C49.11 21.14 48.85 21.41 48.45 21.49C48.05 21.58 47.34 21.56 47.34 21.56L47.34 21.56Z" fill="#261C02" fill-opacity="1.000000" fill-rule="nonzero"/>
		<path id="Vector" d="M52.93 60.76C52.93 60.76 51.73 60.13 51.36 60.06L50.99 60L51.26 58.58C51.26 58.58 52.37 59.11 52.36 59.14C52.36 59.17 52.93 60.77 52.93 60.77L52.93 60.76Z" fill="#6B7B3E" fill-opacity="1.000000" fill-rule="nonzero"/>
		<path id="Vector" d="M52.93 60.76C52.92 59.68 53.18 58.82 53.18 58.82L51.26 58.58L52.93 60.76Z" fill="#4B5B19" fill-opacity="1.000000" fill-rule="nonzero"/>
		<path id="Vector" d="M51.43 61.46C51.43 61.46 50.23 60.82 49.86 60.76L49.49 60.69L49.76 59.27C49.76 59.27 50.87 59.8 50.86 59.83C50.86 59.86 51.43 61.46 51.43 61.46L51.43 61.46Z" fill="#6B7B3E" fill-opacity="1.000000" fill-rule="nonzero"/>
		<path id="Vector" d="M51.43 61.46C51.42 60.37 51.68 59.52 51.68 59.52L49.76 59.27L51.43 61.45L51.43 61.46Z" fill="#4B5B19" fill-opacity="1.000000" fill-rule="nonzero"/>
		<path id="Vector" d="M49.69 61.8C49.69 61.8 48.49 61.16 48.12 61.1L47.75 61.03L48.02 59.61C48.02 59.61 49.13 60.14 49.12 60.17C49.12 60.2 49.69 61.8 49.69 61.8L49.69 61.8Z" fill="#6B7B3E" fill-opacity="1.000000" fill-rule="nonzero"/>
		<path id="Vector" d="M49.69 61.8C49.69 60.71 49.94 59.86 49.94 59.86L48.02 59.61L49.69 61.8Z" fill="#4B5B19" fill-opacity="1.000000" fill-rule="nonzero"/>
		<path id="Vector" d="M47.99 62C47.99 62 46.79 61.37 46.42 61.3L46.05 61.24L46.33 59.82C46.33 59.82 47.43 60.35 47.42 60.38C47.42 60.41 47.99 62.01 47.99 62.01L47.99 62Z" fill="#6B7B3E" fill-opacity="1.000000" fill-rule="nonzero"/>
		<path id="Vector" d="M47.99 62C47.99 60.92 48.25 60.07 48.25 60.07L46.33 59.82L47.99 62Z" fill="#4B5B19" fill-opacity="1.000000" fill-rule="nonzero"/>
		<path id="Vector" d="M45.84 62.01C45.84 62.01 45.15 60.85 44.86 60.6L44.58 60.35L45.55 59.27C45.55 59.27 46.22 60.3 46.2 60.32C46.18 60.35 45.84 62.01 45.84 62.01L45.84 62.01Z" fill="#6B7B3E" fill-opacity="1.000000" fill-rule="nonzero"/>
		<path id="Vector" d="M45.84 62.01C46.4 61.08 47.07 60.48 47.07 60.48L45.55 59.27L45.84 62.01Z" fill="#4B5B19" fill-opacity="1.000000" fill-rule="nonzero"/>
		<path id="Vector" d="M55.79 51.45C55.79 51.45 54.46 51.69 54.13 51.87L53.8 52.05L53.13 50.77C53.13 50.77 54.33 50.5 54.34 50.53C54.36 50.55 55.79 51.45 55.79 51.45L55.79 51.45Z" fill="#6B7B3E" fill-opacity="1.000000" fill-rule="nonzero"/>
		<path id="Vector" d="M55.79 51.45C55.12 50.6 54.79 49.77 54.79 49.77L53.13 50.77L55.79 51.45Z" fill="#4B5B19" fill-opacity="1.000000" fill-rule="nonzero"/>
		<path id="Vector" d="M55.59 47.01C55.59 47.01 54.39 47.63 54.12 47.9L53.86 48.17L52.84 47.13C52.84 47.13 53.91 46.53 53.93 46.55C53.95 46.57 55.59 47.01 55.59 47.01L55.59 47.01Z" fill="#6B7B3E" fill-opacity="1.000000" fill-rule="nonzero"/>
		<path id="Vector" d="M55.59 47.01C54.7 46.4 54.14 45.7 54.14 45.7L52.84 47.13L55.59 47.01Z" fill="#4B5B19" fill-opacity="1.000000" fill-rule="nonzero"/>
		<path id="Vector" d="M55.66 43.08C55.66 43.08 54.46 43.7 54.2 43.97L53.93 44.24L52.92 43.2C52.92 43.2 53.99 42.6 54 42.62C54.03 42.64 55.66 43.08 55.66 43.08L55.66 43.08Z" fill="#6B7B3E" fill-opacity="1.000000" fill-rule="nonzero"/>
		<path id="Vector" d="M55.66 43.08C54.77 42.47 54.21 41.77 54.21 41.77L52.91 43.2L55.66 43.08Z" fill="#4B5B19" fill-opacity="1.000000" fill-rule="nonzero"/>
		<path id="Vector" d="M55.66 40.52C55.66 40.52 54.46 41.14 54.19 41.41L53.93 41.68L52.91 40.64C52.91 40.64 53.98 40.04 54 40.06C54.02 40.08 55.66 40.52 55.66 40.52L55.66 40.52Z" fill="#6B7B3E" fill-opacity="1.000000" fill-rule="nonzero"/>
		<path id="Vector" d="M55.66 40.52C54.77 39.91 54.21 39.21 54.21 39.21L52.91 40.64L55.66 40.52Z" fill="#4B5B19" fill-opacity="1.000000" fill-rule="nonzero"/>
		<path id="Vector" d="M56.16 42.06C56.16 42.06 54.95 42.68 54.69 42.95L54.43 43.21L53.41 42.18C53.41 42.18 54.48 41.57 54.5 41.59C54.52 41.62 56.16 42.05 56.16 42.05L56.16 42.06Z" fill="#6B7B3E" fill-opacity="1.000000" fill-rule="nonzero"/>
		<path id="Vector" d="M56.16 42.06C55.27 41.44 54.71 40.74 54.71 40.74L53.41 42.18L56.16 42.06Z" fill="#4B5B19" fill-opacity="1.000000" fill-rule="nonzero"/>
		<path id="Vector" d="M55.71 38.55C55.71 38.55 54.51 39.17 54.25 39.44L53.98 39.71L52.97 38.67C52.97 38.67 54.03 38.06 54.05 38.09C54.08 38.11 55.71 38.55 55.71 38.55L55.71 38.55Z" fill="#6B7B3E" fill-opacity="1.000000" fill-rule="nonzero"/>
		<path id="Vector" d="M55.71 38.55C54.82 37.94 54.26 37.24 54.26 37.24L52.96 38.67L55.71 38.55Z" fill="#4B5B19" fill-opacity="1.000000" fill-rule="nonzero"/>
		<path id="Vector" d="M55.59 36.57C55.59 36.57 54.38 37.19 54.12 37.46L53.86 37.73L52.84 36.69C52.84 36.69 53.91 36.08 53.93 36.11C53.95 36.13 55.59 36.57 55.59 36.57L55.59 36.57Z" fill="#6B7B3E" fill-opacity="1.000000" fill-rule="nonzero"/>
		<path id="Vector" d="M55.59 36.57C54.7 35.95 54.14 35.26 54.14 35.26L52.84 36.69L55.59 36.57Z" fill="#4B5B19" fill-opacity="1.000000" fill-rule="nonzero"/>
		<path id="Vector" d="M54.05 53.15C54.05 53.15 52.71 53.39 52.38 53.57L52.05 53.75L51.38 52.47C51.38 52.47 52.58 52.2 52.59 52.23C52.61 52.25 54.05 53.15 54.05 53.15L54.05 53.15Z" fill="#6B7B3E" fill-opacity="1.000000" fill-rule="nonzero"/>
		<path id="Vector" d="M54.05 53.15C53.37 52.31 53.05 51.47 53.05 51.47L51.38 52.47L54.05 53.15Z" fill="#4B5B19" fill-opacity="1.000000" fill-rule="nonzero"/>
		<path id="Vector" d="M51.04 57.74C51.04 57.74 49.77 57.25 49.4 57.24L49.02 57.22L49.12 55.77C49.12 55.77 50.28 56.16 50.28 56.19C50.27 56.22 51.04 57.74 51.04 57.74L51.04 57.74Z" fill="#6B7B3E" fill-opacity="1.000000" fill-rule="nonzero"/>
		<path id="Vector" d="M51.04 57.74C50.9 56.66 51.05 55.78 51.05 55.78L49.12 55.77L51.04 57.74L51.04 57.74Z" fill="#4B5B19" fill-opacity="1.000000" fill-rule="nonzero"/>
		<path id="Vector" d="M48.35 60.34C48.35 60.34 47.08 59.86 46.71 59.84L46.33 59.83L46.43 58.38C46.43 58.38 47.59 58.77 47.59 58.8C47.58 58.83 48.35 60.34 48.35 60.34L48.35 60.34Z" fill="#6B7B3E" fill-opacity="1.000000" fill-rule="nonzero"/>
		<path id="Vector" d="M48.35 60.34C48.21 59.27 48.36 58.39 48.36 58.39L46.43 58.38L48.35 60.34Z" fill="#4B5B19" fill-opacity="1.000000" fill-rule="nonzero"/>
		<path id="Vector" d="M53.13 54.95C53.13 54.95 51.79 55.19 51.46 55.37L51.13 55.55L50.47 54.26C50.47 54.26 51.66 54 51.68 54.02C51.69 54.05 53.13 54.95 53.13 54.95L53.13 54.95Z" fill="#6B7B3E" fill-opacity="1.000000" fill-rule="nonzero"/>
		<path id="Vector" d="M53.13 54.95C52.46 54.1 52.13 53.27 52.13 53.27L50.47 54.26L53.13 54.95Z" fill="#4B5B19" fill-opacity="1.000000" fill-rule="nonzero"/>
		<path id="Vector" d="M52.28 56.35C52.28 56.35 50.94 56.59 50.61 56.77L50.28 56.95L49.61 55.66C49.61 55.66 50.81 55.4 50.83 55.43C50.84 55.45 52.28 56.35 52.28 56.35L52.28 56.35Z" fill="#6B7B3E" fill-opacity="1.000000" fill-rule="nonzero"/>
		<path id="Vector" d="M52.27 56.35C51.6 55.5 51.27 54.67 51.27 54.67L49.61 55.66L52.27 56.35L52.27 56.35Z" fill="#4B5B19" fill-opacity="1.000000" fill-rule="nonzero"/>
		<path id="Vector" d="M54.31 59.36C54.31 59.36 53.11 58.73 52.74 58.66L52.37 58.6L52.64 57.18C52.64 57.18 53.75 57.71 53.74 57.74C53.73 57.77 54.31 59.37 54.31 59.37L54.31 59.36Z" fill="#6B7B3E" fill-opacity="1.000000" fill-rule="nonzero"/>
		<path id="Vector" d="M54.31 59.36C54.3 58.28 54.56 57.43 54.56 57.43L52.64 57.18L54.31 59.36Z" fill="#4B5B19" fill-opacity="1.000000" fill-rule="nonzero"/>
		<path id="Vector" d="M55.9 58.13C55.9 58.13 54.57 57.85 54.2 57.89L53.83 57.93L53.7 56.48C53.7 56.48 54.91 56.69 54.91 56.72C54.91 56.75 55.9 58.13 55.9 58.13Z" fill="#6B7B3E" fill-opacity="1.000000" fill-rule="nonzero"/>
		<path id="Vector" d="M55.9 58.13C55.6 57.09 55.61 56.2 55.61 56.2L53.7 56.48L55.9 58.13Z" fill="#4B5B19" fill-opacity="1.000000" fill-rule="nonzero"/>
		<path id="Vector" d="M56.08 56.54C56.08 56.54 54.75 56.26 54.38 56.3L54 56.34L53.88 54.89C53.88 54.89 55.09 55.1 55.09 55.13C55.09 55.16 56.08 56.54 56.08 56.54L56.08 56.54Z" fill="#6B7B3E" fill-opacity="1.000000" fill-rule="nonzero"/>
		<path id="Vector" d="M56.08 56.54C55.78 55.5 55.79 54.61 55.79 54.61L53.88 54.89L56.08 56.54Z" fill="#4B5B19" fill-opacity="1.000000" fill-rule="nonzero"/>
		<path id="Vector" d="M58.07 53.39C58.07 53.39 56.75 53.11 56.37 53.15L56 53.19L55.87 51.74C55.87 51.74 57.08 51.95 57.08 51.98C57.09 52.01 58.07 53.39 58.07 53.39Z" fill="#6B7B3E" fill-opacity="1.000000" fill-rule="nonzero"/>
		<path id="Vector" d="M58.07 53.39C57.77 52.35 57.79 51.46 57.79 51.46L55.87 51.74L58.07 53.39Z" fill="#4B5B19" fill-opacity="1.000000" fill-rule="nonzero"/>
		<path id="Vector" d="M56.98 55.36C56.98 55.36 55.65 55.07 55.28 55.11L54.9 55.15L54.78 53.71C54.78 53.71 55.99 53.92 55.99 53.95C55.99 53.98 56.98 55.36 56.98 55.36Z" fill="#6B7B3E" fill-opacity="1.000000" fill-rule="nonzero"/>
		<path id="Vector" d="M56.97 55.36C56.68 54.32 56.69 53.42 56.69 53.42L54.78 53.71L56.97 55.36Z" fill="#4B5B19" fill-opacity="1.000000" fill-rule="nonzero"/>
		<path id="Vector" d="M55 54.91C55 54.91 53.67 54.62 53.3 54.66L52.92 54.7L52.8 53.26C52.8 53.26 54 53.47 54.01 53.5C54.01 53.53 55 54.91 55 54.91Z" fill="#6B7B3E" fill-opacity="1.000000" fill-rule="nonzero"/>
		<path id="Vector" d="M54.99 54.91C54.7 53.87 54.71 52.97 54.71 52.97L52.8 53.26L54.99 54.91Z" fill="#4B5B19" fill-opacity="1.000000" fill-rule="nonzero"/>
		<path id="Vector" d="M54.29 56.68C54.29 56.68 52.96 56.4 52.59 56.44L52.21 56.48L52.09 55.03C52.09 55.03 53.3 55.24 53.3 55.27C53.3 55.3 54.29 56.68 54.29 56.68L54.29 56.68Z" fill="#6B7B3E" fill-opacity="1.000000" fill-rule="nonzero"/>
		<path id="Vector" d="M54.28 56.68C53.99 55.64 54 54.75 54 54.75L52.09 55.03L54.28 56.68Z" fill="#4B5B19" fill-opacity="1.000000" fill-rule="nonzero"/>
		<path id="Vector" d="M53.36 58.18C53.36 58.18 52.03 57.9 51.66 57.94L51.29 57.98L51.16 56.53C51.16 56.53 52.37 56.74 52.37 56.77C52.37 56.8 53.36 58.18 53.36 58.18Z" fill="#6B7B3E" fill-opacity="1.000000" fill-rule="nonzero"/>
		<path id="Vector" d="M53.36 58.18C53.06 57.14 53.07 56.25 53.07 56.25L51.16 56.53L53.36 58.18Z" fill="#4B5B19" fill-opacity="1.000000" fill-rule="nonzero"/>
		<path id="Vector" d="M51.8 59.85C51.8 59.85 50.57 59.27 50.2 59.23L49.83 59.19L50.02 57.75C50.02 57.75 51.15 58.22 51.15 58.25C51.14 58.28 51.8 59.84 51.8 59.84L51.8 59.85Z" fill="#6B7B3E" fill-opacity="1.000000" fill-rule="nonzero"/>
		<path id="Vector" d="M51.8 59.85C51.74 58.77 51.95 57.9 51.95 57.9L50.02 57.75L51.8 59.85L51.8 59.85Z" fill="#4B5B19" fill-opacity="1.000000" fill-rule="nonzero"/>
		<path id="Vector" d="M50.47 60.61C50.47 60.61 49.25 60.03 48.87 59.99L48.5 59.95L48.69 58.51C48.69 58.51 49.83 58.98 49.82 59.01C49.82 59.04 50.47 60.61 50.47 60.61L50.47 60.61Z" fill="#6B7B3E" fill-opacity="1.000000" fill-rule="nonzero"/>
		<path id="Vector" d="M50.47 60.61C50.41 59.53 50.63 58.66 50.63 58.66L48.7 58.51L50.47 60.61L50.47 60.61Z" fill="#4B5B19" fill-opacity="1.000000" fill-rule="nonzero"/>
		<path id="Vector" d="M39.81 28.26C39.81 28.26 40.97 28.72 41.32 28.74L41.66 28.76L41.56 30.1C41.56 30.1 40.49 29.72 40.49 29.69C40.5 29.66 39.81 28.26 39.81 28.26L39.81 28.26Z" fill="#6B7B3E" fill-opacity="1.000000" fill-rule="nonzero"/>
		<path id="Vector" d="M39.81 28.26C39.92 29.25 39.77 30.06 39.77 30.06L41.56 30.1L39.81 28.26L39.81 28.26Z" fill="#4B5B19" fill-opacity="1.000000" fill-rule="nonzero"/>
		<path id="Vector" d="M35.69 33C35.69 33 36.94 33.05 37.27 32.95L37.6 32.86L37.94 34.15C37.94 34.15 36.81 34.15 36.81 34.12C36.8 34.1 35.69 33 35.69 33Z" fill="#6B7B3E" fill-opacity="1.000000" fill-rule="nonzero"/>
		<path id="Vector" d="M35.69 33C36.12 33.9 36.25 34.71 36.25 34.71L37.94 34.16L35.69 33Z" fill="#4B5B19" fill-opacity="1.000000" fill-rule="nonzero"/>
		<path id="Vector" d="M36.76 31.3C36.76 31.3 38.01 31.35 38.34 31.26L38.68 31.16L39.02 32.46C39.02 32.46 37.88 32.45 37.88 32.43C37.87 32.4 36.76 31.3 36.76 31.3Z" fill="#6B7B3E" fill-opacity="1.000000" fill-rule="nonzero"/>
		<path id="Vector" d="M36.76 31.3C37.19 32.2 37.32 33.01 37.32 33.01L39.01 32.46L36.76 31.3Z" fill="#4B5B19" fill-opacity="1.000000" fill-rule="nonzero"/>
		<path id="Vector" d="M38.16 29.66C38.16 29.66 39.39 29.91 39.74 29.87L40.08 29.83L40.21 31.16C40.21 31.16 39.09 30.98 39.09 30.95C39.09 30.93 38.16 29.66 38.16 29.66L38.16 29.66Z" fill="#6B7B3E" fill-opacity="1.000000" fill-rule="nonzero"/>
		<path id="Vector" d="M38.16 29.66C38.45 30.62 38.45 31.44 38.45 31.44L40.21 31.16L38.16 29.66Z" fill="#4B5B19" fill-opacity="1.000000" fill-rule="nonzero"/>
		<path id="Vector" d="M32.75 40.83C32.75 40.83 33.93 40.42 34.21 40.21L34.48 40L35.27 41.08C35.27 41.08 34.22 41.49 34.2 41.47C34.19 41.45 32.75 40.83 32.75 40.83Z" fill="#6B7B3E" fill-opacity="1.000000" fill-rule="nonzero"/>
		<path id="Vector" d="M32.75 40.83C33.48 41.51 33.9 42.22 33.9 42.22L35.27 41.08L32.75 40.83Z" fill="#4B5B19" fill-opacity="1.000000" fill-rule="nonzero"/>
		<path id="Vector" d="M33.1 39.06C33.1 39.06 34.29 38.65 34.56 38.44L34.84 38.23L35.63 39.31C35.63 39.31 34.58 39.72 34.56 39.7C34.54 39.68 33.1 39.06 33.1 39.06Z" fill="#6B7B3E" fill-opacity="1.000000" fill-rule="nonzero"/>
		<path id="Vector" d="M33.1 39.06C33.84 39.74 34.25 40.45 34.25 40.45L35.63 39.31L33.1 39.06Z" fill="#4B5B19" fill-opacity="1.000000" fill-rule="nonzero"/>
		<path id="Vector" d="M33.69 36.97C33.69 36.97 34.92 36.74 35.22 36.57L35.53 36.41L36.15 37.59C36.15 37.59 35.05 37.84 35.03 37.82C35.02 37.79 33.69 36.97 33.69 36.97L33.69 36.97Z" fill="#6B7B3E" fill-opacity="1.000000" fill-rule="nonzero"/>
		<path id="Vector" d="M33.69 36.97C34.32 37.75 34.62 38.52 34.62 38.52L36.15 37.59L33.69 36.97Z" fill="#4B5B19" fill-opacity="1.000000" fill-rule="nonzero"/>
		<path id="Vector" d="M34.62 34.99C34.62 34.99 35.86 34.88 36.18 34.74L36.5 34.6L37.01 35.84C37.01 35.84 35.89 35.99 35.88 35.96C35.87 35.93 34.62 34.99 34.62 34.99Z" fill="#6B7B3E" fill-opacity="1.000000" fill-rule="nonzero"/>
		<path id="Vector" d="M34.62 34.99C35.17 35.83 35.41 36.62 35.41 36.62L37.01 35.84L34.62 34.99Z" fill="#4B5B19" fill-opacity="1.000000" fill-rule="nonzero"/>
		<path id="Vector" d="M32.53 42.76C32.53 42.76 33.71 42.35 33.99 42.14L34.26 41.93L35.06 43.01C35.06 43.01 34 43.42 33.99 43.4C33.97 43.37 32.53 42.76 32.53 42.76Z" fill="#6B7B3E" fill-opacity="1.000000" fill-rule="nonzero"/>
		<path id="Vector" d="M32.53 42.76C33.26 43.43 33.68 44.15 33.68 44.15L35.06 43.01L32.53 42.76Z" fill="#4B5B19" fill-opacity="1.000000" fill-rule="nonzero"/>
		<path id="Vector" d="M32.24 44.86C32.24 44.86 33.29 44.19 33.51 43.92L33.73 43.65L34.75 44.52C34.75 44.52 33.82 45.17 33.8 45.15C33.78 45.13 32.24 44.86 32.24 44.86L32.24 44.86Z" fill="#6B7B3E" fill-opacity="1.000000" fill-rule="nonzero"/>
		<path id="Vector" d="M32.24 44.86C33.1 45.35 33.68 45.95 33.68 45.95L34.75 44.52L32.24 44.86L32.24 44.86Z" fill="#4B5B19" fill-opacity="1.000000" fill-rule="nonzero"/>
		<path id="Vector" d="M32.48 47.31C32.48 47.31 33.33 46.39 33.47 46.07L33.62 45.76L34.82 46.34C34.82 46.34 34.08 47.2 34.06 47.19C34.04 47.17 32.48 47.31 32.48 47.31Z" fill="#6B7B3E" fill-opacity="1.000000" fill-rule="nonzero"/>
		<path id="Vector" d="M32.48 47.31C33.44 47.56 34.14 47.99 34.14 47.99L34.82 46.34L32.48 47.31Z" fill="#4B5B19" fill-opacity="1.000000" fill-rule="nonzero"/>
		<path id="Vector" d="M32.98 48.73C32.98 48.73 33.95 47.95 34.14 47.66L34.33 47.37L35.44 48.12C35.44 48.12 34.58 48.86 34.56 48.84C34.54 48.83 32.98 48.73 32.98 48.73Z" fill="#6B7B3E" fill-opacity="1.000000" fill-rule="nonzero"/>
		<path id="Vector" d="M32.98 48.73C33.9 49.12 34.53 49.65 34.53 49.65L35.44 48.12L32.98 48.73Z" fill="#4B5B19" fill-opacity="1.000000" fill-rule="nonzero"/>
		<path id="Vector" d="M33.5 50.88C33.5 50.88 34.27 49.89 34.38 49.56L34.5 49.24L35.75 49.71C35.75 49.71 35.09 50.63 35.07 50.62C35.04 50.61 33.5 50.88 33.5 50.88Z" fill="#6B7B3E" fill-opacity="1.000000" fill-rule="nonzero"/>
		<path id="Vector" d="M33.5 50.88C34.48 51.05 35.22 51.42 35.22 51.42L35.75 49.71L33.5 50.88Z" fill="#4B5B19" fill-opacity="1.000000" fill-rule="nonzero"/>
		<path id="Vector" d="M34.31 52.92C34.31 52.92 34.8 51.77 34.83 51.43L34.86 51.08L36.19 51.22C36.19 51.22 35.79 52.28 35.76 52.28C35.73 52.27 34.31 52.92 34.31 52.92L34.31 52.92Z" fill="#6B7B3E" fill-opacity="1.000000" fill-rule="nonzero"/>
		<path id="Vector" d="M34.31 52.92C35.31 52.84 36.11 53.01 36.11 53.01L36.19 51.22L34.31 52.92L34.31 52.92Z" fill="#4B5B19" fill-opacity="1.000000" fill-rule="nonzero"/>
		<path id="Vector" d="M35.05 54.49C35.05 54.49 35.76 53.46 35.86 53.12L35.96 52.79L37.24 53.19C37.24 53.19 36.63 54.15 36.6 54.14C36.58 54.13 35.05 54.49 35.05 54.49L35.05 54.49Z" fill="#6B7B3E" fill-opacity="1.000000" fill-rule="nonzero"/>
		<path id="Vector" d="M35.05 54.49C36.05 54.6 36.8 54.93 36.8 54.93L37.24 53.19L35.05 54.49Z" fill="#4B5B19" fill-opacity="1.000000" fill-rule="nonzero"/>
		<path id="Vector" d="M36.06 56.36C36.06 56.36 36.52 55.19 36.54 54.84L36.55 54.5L37.89 54.59C37.89 54.59 37.52 55.67 37.49 55.66C37.47 55.66 36.07 56.36 36.07 56.36L36.06 56.36Z" fill="#6B7B3E" fill-opacity="1.000000" fill-rule="nonzero"/>
		<path id="Vector" d="M36.06 56.36C37.06 56.24 37.87 56.38 37.87 56.38L37.89 54.59L36.06 56.36Z" fill="#4B5B19" fill-opacity="1.000000" fill-rule="nonzero"/>
		<path id="Vector" d="M37.71 58.18C37.71 58.18 37.85 56.94 37.78 56.6L37.71 56.26L39.03 56.02C39.03 56.02 38.94 57.14 38.91 57.15C38.89 57.15 37.71 58.18 37.71 58.18L37.71 58.18Z" fill="#6B7B3E" fill-opacity="1.000000" fill-rule="nonzero"/>
		<path id="Vector" d="M37.71 58.18C38.64 57.81 39.46 57.75 39.46 57.75L39.03 56.01L37.71 58.18Z" fill="#4B5B19" fill-opacity="1.000000" fill-rule="nonzero"/>
		<path id="Vector" d="M38.95 59.03C38.95 59.03 39.28 57.83 39.26 57.48L39.24 57.13L40.58 57.08C40.58 57.08 40.33 58.19 40.3 58.19C40.27 58.19 38.95 59.03 38.95 59.03Z" fill="#6B7B3E" fill-opacity="1.000000" fill-rule="nonzero"/>
		<path id="Vector" d="M38.95 59.03C39.93 58.81 40.75 58.86 40.75 58.86L40.57 57.08L38.95 59.03Z" fill="#4B5B19" fill-opacity="1.000000" fill-rule="nonzero"/>
		<path id="Vector" d="M40.65 60.46C40.65 60.46 40.68 59.21 40.58 58.87L40.48 58.54L41.77 58.18C41.77 58.18 41.78 59.31 41.76 59.32C41.73 59.33 40.65 60.46 40.65 60.46L40.65 60.46Z" fill="#6B7B3E" fill-opacity="1.000000" fill-rule="nonzero"/>
		<path id="Vector" d="M40.65 60.46C41.54 60.01 42.35 59.87 42.35 59.87L41.77 58.18L40.65 60.46Z" fill="#4B5B19" fill-opacity="1.000000" fill-rule="nonzero"/>
		<path id="Vector" d="M42.71 61.52C42.71 61.52 42.42 60.3 42.24 60L42.06 59.71L43.22 59.03C43.22 59.03 43.52 60.12 43.49 60.14C43.47 60.15 42.71 61.52 42.71 61.52L42.71 61.52Z" fill="#6B7B3E" fill-opacity="1.000000" fill-rule="nonzero"/>
		<path id="Vector" d="M42.71 61.52C43.46 60.86 44.21 60.52 44.21 60.52L43.22 59.03L42.71 61.52L42.71 61.52Z" fill="#4B5B19" fill-opacity="1.000000" fill-rule="nonzero"/>
		<path id="Vector" d="M41.11 28.36C41.11 28.36 42.27 28.83 42.62 28.85L42.96 28.87L42.86 30.2C42.86 30.2 41.79 29.83 41.79 29.8C41.79 29.77 41.11 28.36 41.11 28.36L41.11 28.36Z" fill="#6B7B3E" fill-opacity="1.000000" fill-rule="nonzero"/>
		<path id="Vector" d="M41.11 28.36C41.22 29.36 41.07 30.17 41.07 30.17L42.86 30.2L41.11 28.36L41.11 28.36Z" fill="#4B5B19" fill-opacity="1.000000" fill-rule="nonzero"/>
		<path id="Vector" d="M36.99 33.1C36.99 33.1 38.24 33.16 38.57 33.06L38.9 32.97L39.25 34.26C39.25 34.26 38.11 34.26 38.1 34.23C38.1 34.2 36.99 33.1 36.99 33.1Z" fill="#6B7B3E" fill-opacity="1.000000" fill-rule="nonzero"/>
		<path id="Vector" d="M36.99 33.1C37.42 34 37.55 34.82 37.55 34.82L39.24 34.26L36.99 33.1Z" fill="#4B5B19" fill-opacity="1.000000" fill-rule="nonzero"/>
		<path id="Vector" d="M38.06 31.41C38.06 31.41 39.31 31.46 39.64 31.36L39.98 31.27L40.32 32.56C40.32 32.56 39.18 32.56 39.18 32.53C39.17 32.51 38.06 31.41 38.06 31.41Z" fill="#6B7B3E" fill-opacity="1.000000" fill-rule="nonzero"/>
		<path id="Vector" d="M38.06 31.41C38.49 32.31 38.62 33.12 38.62 33.12L40.31 32.56L38.06 31.41Z" fill="#4B5B19" fill-opacity="1.000000" fill-rule="nonzero"/>
		<path id="Vector" d="M39.46 29.77C39.46 29.77 40.69 30.02 41.03 29.98L41.38 29.94L41.51 31.27C41.51 31.27 40.39 31.09 40.39 31.06C40.39 31.03 39.46 29.77 39.46 29.77L39.46 29.77Z" fill="#6B7B3E" fill-opacity="1.000000" fill-rule="nonzero"/>
		<path id="Vector" d="M39.46 29.77C39.75 30.73 39.75 31.55 39.75 31.55L41.51 31.27L39.46 29.77Z" fill="#4B5B19" fill-opacity="1.000000" fill-rule="nonzero"/>
		<path id="Vector" d="M34.05 40.94C34.05 40.94 35.23 40.53 35.5 40.32L35.78 40.11L36.57 41.19C36.57 41.19 35.52 41.6 35.5 41.58C35.49 41.56 34.05 40.94 34.05 40.94Z" fill="#6B7B3E" fill-opacity="1.000000" fill-rule="nonzero"/>
		<path id="Vector" d="M34.05 40.94C34.78 41.62 35.2 42.33 35.2 42.33L36.57 41.19L34.05 40.94Z" fill="#4B5B19" fill-opacity="1.000000" fill-rule="nonzero"/>
		<path id="Vector" d="M34.4 39.17C34.4 39.17 35.58 38.76 35.86 38.55L36.14 38.34L36.93 39.42C36.93 39.42 35.87 39.83 35.86 39.81C35.84 39.78 34.4 39.17 34.4 39.17Z" fill="#6B7B3E" fill-opacity="1.000000" fill-rule="nonzero"/>
		<path id="Vector" d="M34.4 39.17C35.14 39.85 35.55 40.56 35.55 40.56L36.93 39.42L34.4 39.17Z" fill="#4B5B19" fill-opacity="1.000000" fill-rule="nonzero"/>
		<path id="Vector" d="M34.99 37.08C34.99 37.08 36.22 36.85 36.52 36.68L36.83 36.51L37.45 37.7C37.45 37.7 36.34 37.95 36.33 37.93C36.32 37.9 34.99 37.08 34.99 37.08L34.99 37.08Z" fill="#6B7B3E" fill-opacity="1.000000" fill-rule="nonzero"/>
		<path id="Vector" d="M34.99 37.08C35.62 37.86 35.92 38.62 35.92 38.62L37.45 37.7L34.99 37.08Z" fill="#4B5B19" fill-opacity="1.000000" fill-rule="nonzero"/>
		<path id="Vector" d="M35.92 35.1C35.92 35.1 37.16 34.98 37.48 34.85L37.8 34.71L38.31 35.94C38.31 35.94 37.19 36.09 37.18 36.07C37.17 36.04 35.92 35.1 35.92 35.1L35.92 35.1Z" fill="#6B7B3E" fill-opacity="1.000000" fill-rule="nonzero"/>
		<path id="Vector" d="M35.92 35.1C36.47 35.93 36.71 36.72 36.71 36.72L38.31 35.94L35.92 35.1L35.92 35.1Z" fill="#4B5B19" fill-opacity="1.000000" fill-rule="nonzero"/>
		<path id="Vector" d="M33.83 42.86C33.83 42.86 35.01 42.45 35.29 42.24L35.56 42.03L36.35 43.11C36.35 43.11 35.3 43.53 35.28 43.5C35.27 43.48 33.83 42.86 33.83 42.86Z" fill="#6B7B3E" fill-opacity="1.000000" fill-rule="nonzero"/>
		<path id="Vector" d="M33.83 42.86C34.56 43.54 34.98 44.25 34.98 44.25L36.35 43.11L33.83 42.86Z" fill="#4B5B19" fill-opacity="1.000000" fill-rule="nonzero"/>
		<path id="Vector" d="M33.53 44.97C33.53 44.97 34.59 44.3 34.81 44.03L35.03 43.76L36.05 44.63C36.05 44.63 35.12 45.27 35.1 45.25C35.08 45.24 33.53 44.97 33.53 44.97L33.53 44.97Z" fill="#6B7B3E" fill-opacity="1.000000" fill-rule="nonzero"/>
		<path id="Vector" d="M33.53 44.97C34.4 45.46 34.98 46.06 34.98 46.06L36.05 44.63L33.53 44.97L33.53 44.97Z" fill="#4B5B19" fill-opacity="1.000000" fill-rule="nonzero"/>
		<path id="Vector" d="M34.6 46.01C34.6 46.01 35.65 45.34 35.87 45.07L36.09 44.8L37.11 45.67C37.11 45.67 36.18 46.31 36.16 46.3C36.14 46.28 34.6 46.01 34.6 46.01L34.6 46.01Z" fill="#6B7B3E" fill-opacity="1.000000" fill-rule="nonzero"/>
		<path id="Vector" d="M34.6 46.01C35.47 46.5 36.04 47.1 36.04 47.1L37.11 45.67L34.6 46.01L34.6 46.01Z" fill="#4B5B19" fill-opacity="1.000000" fill-rule="nonzero"/>
		<path id="Vector" d="M35.08 43.98C35.08 43.98 36.14 43.31 36.36 43.04L36.58 42.77L37.6 43.64C37.6 43.64 36.66 44.28 36.64 44.26C36.62 44.24 35.08 43.98 35.08 43.98L35.08 43.98Z" fill="#6B7B3E" fill-opacity="1.000000" fill-rule="nonzero"/>
		<path id="Vector" d="M35.08 43.98C35.95 44.47 36.52 45.06 36.52 45.06L37.6 43.64L35.08 43.98L35.08 43.98Z" fill="#4B5B19" fill-opacity="1.000000" fill-rule="nonzero"/>
		<path id="Vector" d="M35.37 41.86C35.37 41.86 36.43 41.19 36.65 40.92L36.87 40.65L37.89 41.52C37.89 41.52 36.96 42.16 36.94 42.14C36.91 42.13 35.37 41.86 35.37 41.86Z" fill="#6B7B3E" fill-opacity="1.000000" fill-rule="nonzero"/>
		<path id="Vector" d="M35.37 41.86C36.24 42.35 36.81 42.95 36.81 42.95L37.89 41.52L35.37 41.86L35.37 41.86Z" fill="#4B5B19" fill-opacity="1.000000" fill-rule="nonzero"/>
		<path id="Vector" d="M36.2 38.77C36.2 38.77 37.42 38.47 37.71 38.29L38.01 38.11L38.7 39.25C38.7 39.25 37.61 39.57 37.59 39.54C37.58 39.52 36.2 38.77 36.2 38.77Z" fill="#6B7B3E" fill-opacity="1.000000" fill-rule="nonzero"/>
		<path id="Vector" d="M36.2 38.77C36.87 39.51 37.22 40.26 37.22 40.26L38.7 39.25L36.2 38.77Z" fill="#4B5B19" fill-opacity="1.000000" fill-rule="nonzero"/>
		<path id="Vector" d="M36.68 36.52C36.68 36.52 37.89 36.22 38.19 36.04L38.48 35.85L39.17 37C39.17 37 38.08 37.31 38.07 37.29C38.05 37.26 36.68 36.52 36.68 36.52Z" fill="#6B7B3E" fill-opacity="1.000000" fill-rule="nonzero"/>
		<path id="Vector" d="M36.68 36.52C37.35 37.26 37.7 38.01 37.7 38.01L39.17 37L36.68 36.52Z" fill="#4B5B19" fill-opacity="1.000000" fill-rule="nonzero"/>
		<path id="Vector" d="M33.78 47.41C33.78 47.41 34.63 46.5 34.77 46.18L34.92 45.87L36.12 46.45C36.12 46.45 35.39 47.31 35.36 47.29C35.34 47.28 33.78 47.41 33.78 47.41Z" fill="#6B7B3E" fill-opacity="1.000000" fill-rule="nonzero"/>
		<path id="Vector" d="M33.78 47.41C34.74 47.67 35.44 48.1 35.44 48.1L36.12 46.45L33.78 47.41Z" fill="#4B5B19" fill-opacity="1.000000" fill-rule="nonzero"/>
		<path id="Vector" d="M34.28 48.84C34.28 48.84 35.25 48.06 35.44 47.76L35.63 47.47L36.74 48.22C36.74 48.22 35.89 48.97 35.86 48.95C35.84 48.94 34.28 48.84 34.28 48.84Z" fill="#6B7B3E" fill-opacity="1.000000" fill-rule="nonzero"/>
		<path id="Vector" d="M34.28 48.84C35.2 49.23 35.83 49.76 35.83 49.76L36.74 48.22L34.28 48.84Z" fill="#4B5B19" fill-opacity="1.000000" fill-rule="nonzero"/>
		<path id="Vector" d="M34.8 50.99C34.8 50.99 35.57 50 35.68 49.67L35.8 49.35L37.05 49.82C37.05 49.82 36.39 50.74 36.36 50.73C36.34 50.72 34.8 50.99 34.8 50.99Z" fill="#6B7B3E" fill-opacity="1.000000" fill-rule="nonzero"/>
		<path id="Vector" d="M34.8 50.99C35.78 51.15 36.52 51.52 36.52 51.52L37.05 49.82L34.8 50.99Z" fill="#4B5B19" fill-opacity="1.000000" fill-rule="nonzero"/>
		<path id="Vector" d="M35.61 53.03C35.61 53.03 36.1 51.88 36.13 51.54L36.16 51.19L37.5 51.33C37.5 51.33 37.09 52.39 37.06 52.39C37.03 52.38 35.61 53.03 35.61 53.03L35.61 53.03Z" fill="#6B7B3E" fill-opacity="1.000000" fill-rule="nonzero"/>
		<path id="Vector" d="M35.61 53.03C36.61 52.95 37.41 53.12 37.41 53.12L37.5 51.33L35.61 53.03L35.61 53.03Z" fill="#4B5B19" fill-opacity="1.000000" fill-rule="nonzero"/>
		<path id="Vector" d="M36.35 54.59C36.35 54.59 37.06 53.56 37.16 53.23L37.26 52.9L38.54 53.3C38.54 53.3 37.93 54.26 37.9 54.25C37.88 54.24 36.35 54.59 36.35 54.59L36.35 54.59Z" fill="#6B7B3E" fill-opacity="1.000000" fill-rule="nonzero"/>
		<path id="Vector" d="M36.35 54.59C37.34 54.71 38.1 55.03 38.1 55.03L38.54 53.3L36.35 54.59Z" fill="#4B5B19" fill-opacity="1.000000" fill-rule="nonzero"/>
		<path id="Vector" d="M37.36 56.46C37.36 56.46 37.82 55.3 37.83 54.95L37.85 54.6L39.19 54.7C39.19 54.7 38.82 55.77 38.79 55.77C38.76 55.77 37.36 56.46 37.36 56.46L37.36 56.46Z" fill="#6B7B3E" fill-opacity="1.000000" fill-rule="nonzero"/>
		<path id="Vector" d="M37.36 56.46C38.35 56.34 39.17 56.49 39.17 56.49L39.19 54.7L37.36 56.46Z" fill="#4B5B19" fill-opacity="1.000000" fill-rule="nonzero"/>
		<path id="Vector" d="M39.01 58.29C39.01 58.29 39.15 57.05 39.08 56.71L39.01 56.37L40.33 56.12C40.33 56.12 40.24 57.25 40.21 57.26C40.19 57.26 39.01 58.29 39.01 58.29L39.01 58.29Z" fill="#6B7B3E" fill-opacity="1.000000" fill-rule="nonzero"/>
		<path id="Vector" d="M39 58.29C39.93 57.92 40.76 57.85 40.76 57.85L40.33 56.12L39 58.29Z" fill="#4B5B19" fill-opacity="1.000000" fill-rule="nonzero"/>
		<path id="Vector" d="M40.25 59.14C40.25 59.14 40.58 57.93 40.56 57.59L40.53 57.24L41.87 57.19C41.87 57.19 41.63 58.29 41.6 58.29C41.57 58.29 40.25 59.14 40.25 59.14Z" fill="#6B7B3E" fill-opacity="1.000000" fill-rule="nonzero"/>
		<path id="Vector" d="M40.25 59.14C41.23 58.91 42.05 58.97 42.05 58.97L41.87 57.19L40.25 59.14Z" fill="#4B5B19" fill-opacity="1.000000" fill-rule="nonzero"/>
		<path id="Vector" d="M41.95 60.56C41.95 60.56 41.98 59.31 41.88 58.98L41.78 58.65L43.07 58.29C43.07 58.29 43.08 59.42 43.06 59.43C43.03 59.43 41.95 60.56 41.95 60.56L41.95 60.56Z" fill="#6B7B3E" fill-opacity="1.000000" fill-rule="nonzero"/>
		<path id="Vector" d="M41.95 60.56C42.84 60.12 43.65 59.98 43.65 59.98L43.07 58.29L41.95 60.56Z" fill="#4B5B19" fill-opacity="1.000000" fill-rule="nonzero"/>
		<path id="Vector" d="M44.01 61.62C44.01 61.62 43.72 60.41 43.54 60.11L43.36 59.81L44.52 59.14C44.52 59.14 44.82 60.23 44.79 60.24C44.77 60.26 44.01 61.63 44.01 61.63L44.01 61.62Z" fill="#6B7B3E" fill-opacity="1.000000" fill-rule="nonzero"/>
		<path id="Vector" d="M44.01 61.62C44.76 60.97 45.51 60.63 45.51 60.63L44.52 59.14L44.01 61.63L44.01 61.62Z" fill="#4B5B19" fill-opacity="1.000000" fill-rule="nonzero"/>
		<path id="Vector" d="M35.62 47.65C35.62 47.65 36.7 47.02 36.92 46.75L37.15 46.49L38.14 47.4C38.14 47.4 37.19 48.01 37.17 47.99C37.15 47.97 35.62 47.65 35.62 47.65L35.62 47.65Z" fill="#6B7B3E" fill-opacity="1.000000" fill-rule="nonzero"/>
		<path id="Vector" d="M35.62 47.65C36.47 48.17 37.02 48.79 37.02 48.79L38.14 47.4L35.62 47.65Z" fill="#4B5B19" fill-opacity="1.000000" fill-rule="nonzero"/>
		<path id="Vector" d="M35.6 46.45C35.6 46.45 36.68 45.82 36.91 45.56L37.13 45.3L38.12 46.2C38.12 46.2 37.17 46.81 37.15 46.79C37.13 46.77 35.6 46.45 35.6 46.45L35.6 46.45Z" fill="#6B7B3E" fill-opacity="1.000000" fill-rule="nonzero"/>
		<path id="Vector" d="M35.6 46.45C36.45 46.97 37 47.59 37 47.59L38.12 46.2L35.6 46.45Z" fill="#4B5B19" fill-opacity="1.000000" fill-rule="nonzero"/>
		<path id="Vector" d="M35.86 49.99C35.86 49.99 36.94 49.35 37.17 49.09L37.4 48.83L38.39 49.74C38.39 49.74 37.43 50.35 37.41 50.33C37.4 50.31 35.86 49.99 35.86 49.99L35.86 49.99Z" fill="#6B7B3E" fill-opacity="1.000000" fill-rule="nonzero"/>
		<path id="Vector" d="M35.86 49.99C36.72 50.51 37.26 51.12 37.26 51.12L38.39 49.74L35.86 49.99Z" fill="#4B5B19" fill-opacity="1.000000" fill-rule="nonzero"/>
		<path id="Vector" d="M53.43 27.1C53.43 27.1 53.04 28.39 53.04 28.77L53.05 29.14L51.6 29.15C51.6 29.15 51.91 27.96 51.94 27.97C51.97 27.97 53.42 27.09 53.42 27.09L53.43 27.1Z" fill="#6B7B3E" fill-opacity="1.000000" fill-rule="nonzero"/>
		<path id="Vector" d="M53.43 27.1C52.37 27.31 51.48 27.22 51.48 27.22L51.6 29.15L53.43 27.1Z" fill="#4B5B19" fill-opacity="1.000000" fill-rule="nonzero"/>
		<path id="Vector" d="M55.03 28.32C55.03 28.32 54.64 29.62 54.65 29.99L54.66 30.37L53.21 30.38C53.21 30.38 53.51 29.19 53.54 29.19C53.58 29.19 55.03 28.32 55.03 28.32L55.03 28.32Z" fill="#6B7B3E" fill-opacity="1.000000" fill-rule="nonzero"/>
		<path id="Vector" d="M55.03 28.32C53.97 28.53 53.08 28.45 53.08 28.45L53.21 30.38L55.03 28.32Z" fill="#4B5B19" fill-opacity="1.000000" fill-rule="nonzero"/>
		<path id="Vector" d="M54.85 30.35C54.85 30.35 54.15 31.51 54.07 31.88L53.99 32.24L52.58 31.9C52.58 31.9 53.17 30.82 53.2 30.83C53.23 30.84 54.85 30.35 54.85 30.35L54.85 30.35Z" fill="#6B7B3E" fill-opacity="1.000000" fill-rule="nonzero"/>
		<path id="Vector" d="M54.85 30.35C53.77 30.29 52.93 29.99 52.93 29.99L52.58 31.9L54.85 30.35L54.85 30.35Z" fill="#4B5B19" fill-opacity="1.000000" fill-rule="nonzero"/>
		<path id="Vector" d="M53.4 29.65C53.4 29.65 53 30.94 53 31.32L53.01 31.7L51.56 31.7C51.56 31.7 51.88 30.51 51.91 30.51C51.94 30.51 53.4 29.65 53.4 29.65Z" fill="#6B7B3E" fill-opacity="1.000000" fill-rule="nonzero"/>
		<path id="Vector" d="M53.4 29.65C52.33 29.86 51.44 29.76 51.44 29.76L51.56 31.7L53.4 29.65L53.4 29.65Z" fill="#4B5B19" fill-opacity="1.000000" fill-rule="nonzero"/>
		<path id="Vector" d="M51.57 27.15C51.57 27.15 51.19 28.45 51.21 28.82L51.22 29.2L49.77 29.23C49.77 29.23 50.06 28.04 50.09 28.04C50.12 28.04 51.57 27.15 51.57 27.15L51.57 27.15Z" fill="#6B7B3E" fill-opacity="1.000000" fill-rule="nonzero"/>
		<path id="Vector" d="M51.56 27.15C50.51 27.37 49.62 27.3 49.62 27.3L49.77 29.23L51.57 27.15L51.56 27.15Z" fill="#4B5B19" fill-opacity="1.000000" fill-rule="nonzero"/>
		<path id="Vector" d="M49.64 24.71C49.64 24.71 49.76 26.06 49.91 26.4L50.07 26.75L48.72 27.3C48.72 27.3 48.56 26.08 48.59 26.07C48.62 26.06 49.64 24.71 49.64 24.71Z" fill="#6B7B3E" fill-opacity="1.000000" fill-rule="nonzero"/>
		<path id="Vector" d="M49.64 24.71C48.74 25.3 47.88 25.56 47.88 25.56L48.72 27.3L49.64 24.71Z" fill="#4B5B19" fill-opacity="1.000000" fill-rule="nonzero"/>
		<path id="Vector" d="M47.25 24.42C47.25 24.42 48.12 25.46 48.43 25.66L48.75 25.86L47.96 27.07C47.96 27.07 47.14 26.16 47.16 26.13C47.17 26.11 47.25 24.42 47.25 24.42Z" fill="#6B7B3E" fill-opacity="1.000000" fill-rule="nonzero"/>
		<path id="Vector" d="M47.25 24.42C46.84 25.42 46.28 26.11 46.28 26.11L47.96 27.07L47.25 24.42Z" fill="#4B5B19" fill-opacity="1.000000" fill-rule="nonzero"/>
		<path id="Vector" d="M46.16 25.7C46.16 25.7 47.02 26.75 47.34 26.95L47.66 27.15L46.87 28.36C46.87 28.36 46.05 27.45 46.07 27.42C46.08 27.4 46.16 25.71 46.16 25.71L46.16 25.7Z" fill="#6B7B3E" fill-opacity="1.000000" fill-rule="nonzero"/>
		<path id="Vector" d="M46.16 25.7C45.75 26.71 45.19 27.4 45.19 27.4L46.87 28.36L46.16 25.7Z" fill="#4B5B19" fill-opacity="1.000000" fill-rule="nonzero"/>
		<path id="Vector" d="M49.92 26.75C49.92 26.75 49.63 28.07 49.67 28.44L49.71 28.82L48.26 28.94C48.26 28.94 48.48 27.73 48.51 27.73C48.54 27.73 49.92 26.75 49.92 26.75L49.92 26.75Z" fill="#6B7B3E" fill-opacity="1.000000" fill-rule="nonzero"/>
		<path id="Vector" d="M49.92 26.75C48.88 27.04 47.99 27.03 47.99 27.03L48.27 28.94L49.92 26.74L49.92 26.75Z" fill="#4B5B19" fill-opacity="1.000000" fill-rule="nonzero"/>
		<path id="Vector" d="M47.82 26.51C47.82 26.51 46.59 27.82 46.19 27.69C45.79 27.56 45.64 26.87 45.64 26.87C45.64 26.87 45.24 27.71 44.73 27.89C44.23 28.07 44 27.28 44 27.28L43.93 27.63C43.85 27.98 43.67 28.47 43.38 28.58C43.08 28.68 42.64 27.99 42.64 27.99C42.64 27.99 42.86 28.71 42.32 29.33C41.79 29.95 40.95 29.01 40.95 29.01C40.95 29.01 41.15 29.54 41.27 29.97C41.36 30.28 41.33 30.58 41.18 30.78C41.21 30.63 41.22 30.56 41.2 30.59C41.17 30.64 41.14 30.74 41.1 30.86C41.06 30.89 41.01 30.92 40.95 30.94C40.63 31.06 39.72 30.57 39.72 30.57C39.72 30.57 40.65 32.15 40.42 32.52C40.37 32.58 40.33 32.64 40.28 32.69C39.62 33.38 38.25 32.83 38.25 32.83C38.25 32.83 39.58 34.32 39.06 34.76C38.53 35.2 37.25 35.32 37.25 35.32C37.25 35.32 39.03 36.33 38.64 36.98C38.25 37.62 37.08 37.93 37.08 37.93C37.08 37.93 37.18 37.96 37.78 38.33C38.3 38.65 38.43 39.07 38.31 39.52C37.72 40.11 36.49 39.89 36.49 39.89C36.49 39.89 38.09 41.09 37.67 41.62C37.25 42.15 36.01 42.53 36.01 42.53C36.01 42.53 37.96 43.16 37.71 43.88C37.46 44.59 36.38 45.13 36.38 45.13C36.38 45.13 36.48 45.13 37.13 45.37C37.47 45.5 37.68 45.67 37.79 45.89C37.8 45.99 37.79 46.09 37.78 46.21C37.7 46.78 36.51 46.66 36.51 46.66C36.51 46.66 37.63 47.32 37.7 47.9C37.78 48.48 36.41 48.78 36.41 48.78C36.41 48.78 37.94 49.36 37.91 49.8C37.89 50.23 36.92 51.29 36.97 51.32C37.02 51.36 38.39 51.29 38.39 51.29L37.38 52.69L38.53 52.47L37.47 54.51L38.96 54.21L38.34 56.33L40.03 55.81L39.94 56.95L40.55 56.81C40.55 56.81 42.44 59.74 44.23 59.88C48.21 60.19 52.65 57.08 53.98 49.44C54.41 47 54.54 42.16 54.54 41.13C54.52 38.4 53.73 34.63 53.26 33.47C50.95 27.75 48.49 27.52 48.04 27.59C47.58 27.66 47.81 26.51 47.81 26.51L47.82 26.51Z" fill="#FFE6C1" fill-opacity="1.000000" fill-rule="nonzero"/>
		<path id="Vector" d="M40.42 36.28C39.63 38.64 38.99 44.01 39.12 46.14C39.26 48.27 39.28 50.7 40.07 52.32C40.85 53.93 42.45 56.11 42.68 57C42.92 57.9 43.96 59.82 45.53 59.34C47.1 58.86 47.73 58.58 50.04 55.72C52.35 52.86 53.38 50.37 53.46 47.85C53.54 45.34 53.13 43.76 53.09 42.14C53.05 39.61 51.88 32.38 49.15 29.3C47.87 27.85 43.67 26.53 40.41 36.27L40.42 36.28Z" fill="#F4C895" fill-opacity="1.000000" fill-rule="nonzero"/>
		<path id="Vector" d="M40.14 45.13C40.14 45.13 40.1 50.32 40.54 51.62C40.99 52.92 42.43 54.61 42.86 55.4C43.3 56.2 43.72 57.14 43.9 57.73C44.09 58.32 44.87 59.09 45.73 58.57C46.6 58.05 47.91 56.37 48.97 55C50.04 53.62 51.62 51.61 51.9 50.75C52.17 49.88 52.18 48.52 52.33 46.45C52.49 44.39 52.31 42.74 52.35 42.26C52.55 40.15 51.53 35.73 51.53 35.73L42.31 45.65L40.14 45.13L40.14 45.13Z" fill="#E77F40" fill-opacity="1.000000" fill-rule="nonzero"/>
		<path id="Vector" d="M44.63 57.68C44.89 57.92 45.29 57.95 45.58 57.75C46.59 57.06 46.43 56.56 49.69 52.59C51.21 50.74 51.63 47.92 51.62 46.38C51.61 44.84 52.38 41.39 51.9 37.39C51.43 33.39 49.37 29.94 48.19 29.25C47.28 28.72 43.04 28.48 41.38 34.51C39.73 40.55 39.87 44.31 40.09 47.25C40.31 50.2 40.61 51.78 42.65 54.26C44.89 56.96 43.99 57.08 44.63 57.68L44.63 57.68Z" fill="#FFCA00" fill-opacity="1.000000" fill-rule="nonzero"/>
		<path id="Vector" d="M44.01 30.77C43.65 31.18 43.35 31.65 43.09 32.12C42.02 34.08 41.5 36.32 41.62 38.53C41.69 39.9 42.15 41.06 42.75 42.28C43.28 43.35 44.83 43.33 45.78 42.83C46.73 42.33 47.32 41.36 47.76 40.39C49.08 37.45 49.76 33.73 48.25 30.79C47.89 30.09 47.38 29.54 46.54 29.5C45.96 29.46 45.39 29.67 44.91 29.98C44.57 30.2 44.27 30.47 44.01 30.77L44.01 30.77Z" fill="#FFDF82" fill-opacity="1.000000" fill-rule="nonzero"/>
		<path id="Vector" d="M41 50.72C40.99 50.78 41 50.84 41.01 50.9C41.07 51.22 41.24 51.57 41.38 51.87C41.56 52.24 41.77 52.59 42.01 52.93C42.89 54.16 43.9 55.01 44.12 55.77C44.35 56.53 44.61 57.24 45.09 57.1C45.57 56.96 46.14 55.79 46.97 54.69C47.8 53.59 49.24 51.96 49.73 50.91C50.21 49.87 50.55 47.55 50.65 46.5C50.74 45.44 50.93 43.68 51 42.8C51.08 41.92 50.27 42.05 49.49 45.12C48.72 48.19 47.65 50.16 46.31 51.47C45.67 52.09 44.8 52.37 43.92 52.3C43.58 52.27 43.23 52.19 42.91 52.04C42.49 51.83 42.26 51.44 41.96 51.08C41.78 50.86 41.59 50.64 41.41 50.43C41.35 50.37 41.28 50.3 41.2 50.32C41.16 50.33 41.12 50.37 41.09 50.4C41.03 50.5 41 50.61 41 50.72L41 50.72Z" fill="#FFB41A" fill-opacity="1.000000" fill-rule="nonzero"/>
		<path id="Vector" d="M40.95 47.44C40.81 47.39 40.67 47.48 40.65 47.61C40.62 47.81 40.67 48.1 41.09 48.4C41.84 48.91 43.45 49.33 43.85 49.06C44.25 48.79 43.86 48.53 43.17 48.42C42.48 48.3 41.96 48.16 41.65 47.94C41.34 47.72 41.1 47.5 40.95 47.44C40.95 47.44 40.95 47.44 40.95 47.44L40.95 47.44Z" fill="#FFB41A" fill-opacity="1.000000" fill-rule="nonzero"/>
		<path id="Vector" d="M41.24 49.25C41.4 49.4 42.65 50.01 42.98 50.05C43.32 50.09 43.19 50.22 43.05 50.25C42.91 50.29 42.15 50 41.64 49.69C41.12 49.37 40.91 49.28 40.97 49.21C41.02 49.14 41.24 49.25 41.24 49.25Z" fill="#FFB41A" fill-opacity="1.000000" fill-rule="nonzero"/>
		<path id="Vector" d="M47.08 46.86C47.81 47.1 49.44 47.21 50.16 46.9C50.87 46.58 51.16 44.87 50.66 44.94C50.17 45 49.31 45.9 48.41 45.95C47.51 46 46.95 46.07 46.8 46.34C46.64 46.62 46.95 46.81 47.08 46.86Z" fill="#FFB41A" fill-opacity="1.000000" fill-rule="nonzero"/>
		<path id="Vector" d="M40.8 42.93C40.8 42.93 40.79 45.03 40.89 45.74C40.99 46.46 42.04 47.38 42.91 47.45C43.77 47.53 45.45 46.63 45.77 45.29C46.08 43.95 45.01 43.9 43.77 43.77C42.52 43.64 41.92 41.81 41.38 41.8C40.85 41.79 40.8 42.93 40.8 42.93L40.8 42.93Z" fill="#FFDF82" fill-opacity="1.000000" fill-rule="nonzero"/>
	</g>
</svg>
