<svg width="12.000000" height="11.000000" viewBox="0 0 12 11" fill="none" xmlns="http://www.w3.org/2000/svg" xmlns:xlink="http://www.w3.org/1999/xlink">
	<desc>
			Created with Pixso.
	</desc>
	<defs/>
	<path id="Vector" d="M8.62 7.6L11.12 10.09L10.29 10.92L7.79 8.42C7.33 8.79 6.83 9.07 6.29 9.26C5.71 9.47 5.12 9.57 4.51 9.57C3.57 9.57 2.68 9.33 1.87 8.86C1.07 8.39 0.45 7.76 -0.01 6.97C-0.5 6.15 -0.74 5.27 -0.74 4.32C-0.74 3.37 -0.5 2.49 -0.01 1.67C0.45 0.88 1.07 0.25 1.87 -0.21C2.68 -0.69 3.57 -0.93 4.51 -0.93C5.46 -0.93 6.35 -0.69 7.16 -0.21C7.96 0.25 8.59 0.88 9.05 1.67C9.53 2.49 9.76 3.37 9.76 4.32C9.76 4.92 9.66 5.52 9.46 6.09C9.27 6.64 8.99 7.14 8.62 7.6ZM7.44 7.17C7.81 6.79 8.09 6.36 8.29 5.88C8.5 5.38 8.6 4.86 8.6 4.32C8.6 3.58 8.41 2.89 8.04 2.25C7.68 1.64 7.19 1.15 6.58 0.79C5.94 0.42 5.25 0.23 4.51 0.23C3.78 0.23 3.09 0.42 2.45 0.79C1.83 1.15 1.35 1.64 0.99 2.25C0.62 2.89 0.43 3.58 0.43 4.32C0.43 5.06 0.62 5.75 0.99 6.38C1.35 7 1.83 7.48 2.45 7.84C3.09 8.22 3.78 8.4 4.51 8.4C5.06 8.4 5.58 8.3 6.08 8.1C6.56 7.9 6.99 7.61 7.36 7.25L7.44 7.17Z" fill="#FFFFFF" fill-opacity="1.000000" fill-rule="nonzero"/>
</svg>
